<svg width="24" height="24" viewBox="0 0 24 24" fill="none" xmlns="http://www.w3.org/2000/svg"><path fill="#fff" d="M0 0h24v24H0z"/><path d="M18.364 5.636a9 9 0 0 0-12.728 0 9 9 0 0 0 0 12.728 9 9 0 0 0 12.728 0 9 9 0 0 0 0-12.728zm-1.273 1.273A7.2 7.2 0 1 1 6.908 17.09 7.2 7.2 0 0 1 17.09 6.91zm-4.455.636A.913.913 0 0 0 12 7.266a.927.927 0 0 0-.915.916v2.903H8.182a.927.927 0 0 0-.916.915c.001.497.419.915.916.915h2.903v2.903c0 .497.418.915.915.915a.927.927 0 0 0 .915-.915v-2.903h2.903a.927.927 0 0 0 .915-.915.913.913 0 0 0-.278-.636.913.913 0 0 0-.637-.28h-2.903V8.183a.913.913 0 0 0-.279-.637z" fill="currentColor"/></svg>