<svg width="24" height="24" viewBox="0 0 24 24" fill="none" xmlns="http://www.w3.org/2000/svg"><path d="M8.406 3.003c-2.573 0-4.856 1.81-5.369 4.301-.1.487.216.968.703 1.069a.908.908 0 0 0 1.068-.703c.341-1.658 1.883-2.868 3.598-2.868a.9.9 0 1 0 0-1.799zm7.197 0a.9.9 0 1 0 0 1.8c1.717 0 3.287 1.206 3.626 2.867.1.487.582.802 1.068.703A.907.907 0 0 0 21 7.304c-.51-2.494-2.82-4.3-5.397-4.3zm-3.598 1.8a8.096 8.096 0 0 0-8.097 8.096 8.18 8.18 0 0 0 1.772 5.06l-1.49 1.49a.925.925 0 0 0 0 1.293c.35.351.913.323 1.265-.028l1.49-1.49a8.18 8.18 0 0 0 5.06 1.77c1.898 0 3.679-.704 5.06-1.799l1.518 1.547c.35.351.913.323 1.265-.028.35-.352.323-.914-.028-1.265l-1.49-1.518c1.078-1.308 1.77-3.134 1.77-5.032a8.096 8.096 0 0 0-8.096-8.097zm0 1.799a6.297 6.297 0 1 1 0 12.594 6.297 6.297 0 0 1 0-12.594zm0 1.799a.9.9 0 0 0-.9.9v2.698H8.406a.9.9 0 0 0 0 1.8h3.598a.9.9 0 0 0 .9-.9V9.3a.9.9 0 0 0-.9-.9z" fill="currentColor"/></svg>