<svg width="24" height="24" viewBox="0 0 24 24" fill="none" xmlns="http://www.w3.org/2000/svg"><path fill="#fff" d="M0 0h24v24H0z"/><path d="M18.265 9.767c0 .174-.064.349-.202.487a.693.693 0 0 1-.974 0l-5.091-5.092-5.092 5.092a.693.693 0 0 1-.974 0 .693.693 0 0 1 0-.974L11.511 3.7a.693.693 0 0 1 .974 0l5.578 5.579a.682.682 0 0 1 .203.487z" fill="currentColor" stroke="currentColor" stroke-width=".5"/><path d="M12.687 4.345v15.467c0 .377-.313.69-.69.69a.694.694 0 0 1-.689-.69V4.345c0-.377.313-.69.69-.69.377 0 .689.313.689.69z" fill="currentColor" stroke="currentColor" stroke-width=".5"/></svg>