<svg width="24" height="24" viewBox="0 0 24 24" fill="none" xmlns="http://www.w3.org/2000/svg"><path d="M21 12c0-4.965-4.035-9-9-9s-9 4.035-9 9 4.035 9 9 9 9-4.035 9-9zM4.256 12c0-4.27 3.474-7.744 7.744-7.744S19.744 7.73 19.744 12 16.27 19.744 12 19.744 4.256 16.27 4.256 12z" fill="currentColor" stroke="currentColor" stroke-width=".5"/><path d="M15.558 12a.632.632 0 0 0-.628-.628H9.907a.632.632 0 0 0-.628.628c0 .343.285.628.628.628h5.023a.632.632 0 0 0 .628-.628z" fill="currentColor" stroke="currentColor" stroke-width=".5"/><path d="M12.21 14.512a.62.62 0 0 0-.185-.444L9.957 12l2.068-2.068a.632.632 0 0 0 0-.887.632.632 0 0 0-.887 0l-2.512 2.511a.632.632 0 0 0 0 .888l2.512 2.511a.632.632 0 0 0 .887 0 .62.62 0 0 0 .184-.443z" fill="currentColor" stroke="currentColor" stroke-width=".5"/></svg>