<svg width="24" height="24" viewBox="0 0 24 24" fill="none" xmlns="http://www.w3.org/2000/svg"><path d="M16.603 11.303a.647.647 0 0 1-.462-.192.658.658 0 0 1 0-.924l2.78-2.78-2.78-2.782a.658.658 0 0 1 0-.924.658.658 0 0 1 .924 0l3.243 3.243a.653.653 0 0 1 0 .924l-3.243 3.243a.685.685 0 0 1-.462.192z" fill="currentColor" stroke="currentColor" stroke-width=".5"/><path d="M19.846 8.06H4.154a.659.659 0 0 1-.654-.654c0-.357.296-.653.654-.653h15.692c.358 0 .654.296.654.653a.659.659 0 0 1-.654.654zM7.397 20.5a.647.647 0 0 1-.462-.191l-3.243-3.243a.653.653 0 0 1 0-.924l3.243-3.243a.658.658 0 0 1 .924 0 .658.658 0 0 1 0 .924l-2.781 2.78 2.781 2.782a.658.658 0 0 1 0 .924.619.619 0 0 1-.462.192z" fill="currentColor" stroke="currentColor" stroke-width=".5"/><path d="M19.846 17.249H4.154a.659.659 0 0 1-.654-.654c0-.357.296-.654.654-.654h15.692c.358 0 .654.297.654.654a.659.659 0 0 1-.654.654z" fill="currentColor" stroke="currentColor" stroke-width=".5"/></svg>