<svg width="24" height="24" viewBox="0 0 24 24" fill="none" xmlns="http://www.w3.org/2000/svg"><path fill="#fff" d="M0 0h24v24H0z"/><path d="M5.732 14.236c0-.175.065-.35.202-.487a.693.693 0 0 1 .975 0L12 18.84l5.091-5.091a.693.693 0 0 1 .975 0 .693.693 0 0 1 0 .974l-5.579 5.579a.693.693 0 0 1-.974 0l-5.579-5.58a.682.682 0 0 1-.202-.486z" fill="currentColor" stroke="currentColor" stroke-width=".5"/><path d="M11.31 19.658V4.19c0-.376.313-.689.69-.689.377 0 .69.313.69.69v15.467c0 .377-.313.69-.69.69a.694.694 0 0 1-.69-.69z" fill="currentColor" stroke="currentColor" stroke-width=".5"/></svg>