<svg width="24" height="24" viewBox="0 0 24 24" fill="none" xmlns="http://www.w3.org/2000/svg"><path d="M14.233 18.268a.681.681 0 0 1-.487-.202.693.693 0 0 1 0-.974L18.838 12 13.746 6.91a.693.693 0 0 1 0-.974.693.693 0 0 1 .974 0l5.579 5.578a.693.693 0 0 1 0 .974l-5.579 5.579a.682.682 0 0 1-.487.202z" fill="currentColor" stroke="currentColor" stroke-width=".5"/><path d="M19.655 12.69H4.188a.694.694 0 0 1-.69-.69c0-.377.313-.69.69-.69h15.468c.376 0 .689.313.689.69 0 .377-.313.69-.69.69z" fill="currentColor" stroke="currentColor" stroke-width=".5"/></svg>