<svg width="24" height="24" viewBox="0 0 24 24" fill="none" xmlns="http://www.w3.org/2000/svg"><path fill="#fff" d="M0 0h24v24H0z"/><path d="M12 21c-4.965 0-9-4.035-9-9s4.035-9 9-9 9 4.035 9 9-4.035 9-9 9zm0-16.744C7.73 4.256 4.256 7.73 4.256 12S7.73 19.744 12 19.744 19.744 16.27 19.744 12 16.27 4.256 12 4.256z" fill="currentColor" stroke="currentColor" stroke-width=".5"/><path d="M12 15.558a.632.632 0 0 1-.628-.628V9.907c0-.343.285-.628.628-.628s.628.285.628.628v5.023a.632.632 0 0 1-.628.628z" fill="currentColor" stroke="currentColor" stroke-width=".5"/><path d="M14.512 12.21a.62.62 0 0 1-.444-.185L12 9.957l-2.068 2.068a.632.632 0 0 1-.887 0 .632.632 0 0 1 0-.887l2.511-2.512a.632.632 0 0 1 .888 0l2.511 2.512a.632.632 0 0 1 0 .887.62.62 0 0 1-.443.184z" fill="currentColor" stroke="currentColor" stroke-width=".5"/></svg>