<svg width="24" height="24" viewBox="0 0 24 24" fill="none" xmlns="http://www.w3.org/2000/svg"><path fill="#fff" d="M0 0h24v24H0z"/><path d="M7.397 11.303a.647.647 0 0 0 .462-.192.658.658 0 0 0 0-.924l-2.78-2.78 2.78-2.782a.658.658 0 0 0 0-.924.658.658 0 0 0-.924 0L3.692 6.944a.653.653 0 0 0 0 .924l3.243 3.243c.13.122.296.192.462.192z" fill="currentColor" stroke="currentColor" stroke-width=".5"/><path d="M4.154 8.06h15.692a.659.659 0 0 0 .654-.654.659.659 0 0 0-.654-.653H4.154a.659.659 0 0 0-.654.653c0 .358.296.654.654.654zM16.603 20.5a.647.647 0 0 0 .462-.191l3.243-3.243a.653.653 0 0 0 0-.924l-3.243-3.243a.658.658 0 0 0-.924 0 .658.658 0 0 0 0 .924l2.781 2.78-2.781 2.782a.658.658 0 0 0 0 .924.62.62 0 0 0 .462.192z" fill="currentColor" stroke="currentColor" stroke-width=".5"/><path d="M4.154 17.249h15.692a.659.659 0 0 0 .654-.654.659.659 0 0 0-.654-.654H4.154a.659.659 0 0 0-.654.654c0 .358.296.654.654.654z" fill="currentColor" stroke="currentColor" stroke-width=".5"/></svg>