<svg width="24" height="24" viewBox="0 0 24 24" fill="none" xmlns="http://www.w3.org/2000/svg"><path fill="#fff" d="M0 0h24v24H0z"/><path d="M3 12c0-4.965 4.035-9 9-9s9 4.035 9 9-4.035 9-9 9-9-4.035-9-9zm16.744 0c0-4.27-3.474-7.744-7.744-7.744S4.256 7.73 4.256 12 7.73 19.744 12 19.744 19.744 16.27 19.744 12z" fill="currentColor" stroke="currentColor" stroke-width=".5"/><path d="M8.442 12c0-.343.285-.628.628-.628h5.023c.343 0 .628.285.628.628a.632.632 0 0 1-.628.628H9.07A.633.633 0 0 1 8.442 12z" fill="currentColor" stroke="currentColor" stroke-width=".5"/><path d="M11.79 14.512a.62.62 0 0 1 .185-.444L14.043 12l-2.068-2.068a.632.632 0 0 1 0-.887.632.632 0 0 1 .887 0l2.512 2.511a.632.632 0 0 1 0 .888l-2.512 2.511a.632.632 0 0 1-.887 0 .62.62 0 0 1-.184-.443z" fill="currentColor" stroke="currentColor" stroke-width=".5"/></svg>