<svg width="24" height="24" viewBox="0 0 24 24" fill="none" xmlns="http://www.w3.org/2000/svg"><path fill="#fff" d="M0 0h24v24H0z"/><path d="M12 3c4.965 0 9 4.035 9 9s-4.035 9-9 9-9-4.035-9-9 4.035-9 9-9zm0 16.744c4.27 0 7.744-3.474 7.744-7.744S16.27 4.256 12 4.256 4.256 7.73 4.256 12 7.73 19.744 12 19.744z" fill="currentColor" stroke="currentColor" stroke-width=".5"/><path d="M12 8.442c.343 0 .628.285.628.628v5.023a.632.632 0 0 1-.628.628.632.632 0 0 1-.628-.628V9.07c0-.343.285-.628.628-.628z" fill="currentColor" stroke="currentColor" stroke-width=".5"/><path d="M9.488 11.79a.62.62 0 0 1 .444.185L12 14.043l2.068-2.068a.632.632 0 0 1 .887 0 .632.632 0 0 1 0 .887l-2.511 2.512a.632.632 0 0 1-.888 0l-2.511-2.512a.632.632 0 0 1 0-.887.62.62 0 0 1 .443-.184z" fill="currentColor" stroke="currentColor" stroke-width=".5"/></svg>