<svg width="24" height="24" viewBox="0 0 24 24" fill="none" xmlns="http://www.w3.org/2000/svg"><path fill="#fff" d="M0 0h24v24H0z"/><path d="M9.764 18.268c.175 0 .35-.064.487-.202a.693.693 0 0 0 0-.974L5.16 12 10.25 6.91a.693.693 0 0 0 0-.974.693.693 0 0 0-.974 0L3.7 11.513a.693.693 0 0 0 0 .974l5.578 5.579a.682.682 0 0 0 .487.202z" fill="currentColor" stroke="currentColor" stroke-width=".5"/><path d="M4.342 12.69H19.81c.376 0 .689-.313.689-.69a.694.694 0 0 0-.69-.69H4.343a.694.694 0 0 0-.689.69c0 .377.312.69.69.69z" fill="currentColor" stroke="currentColor" stroke-width=".5"/></svg>