<svg width="24" height="24" viewBox="0 0 24 24" fill="none" xmlns="http://www.w3.org/2000/svg"><path fill="#fff" d="M0 0h24v24H0z"/><path d="M11.998 3.514a3.402 3.402 0 0 0-3.404 3.4v.85h-.026c-1.433 0-2.7.924-3.166 2.285-.12.352-.252 1.006-.398 1.965-.068.447-.14.96-.213 1.514-.102.768-.4 3.454-.4 3.454-.298 1.909.97 3.532 2.846 3.532h9.522c1.877 0 3.144-1.623 2.846-3.532a.995.995 0 0 0 0-.24c-.022-.24-.253-2.445-.346-3.214-.19-1.584-.366-2.725-.558-3.32-.029-.088-.075-.166-.107-.239-.585-1.331-1.704-2.182-3.165-2.205h-.027v-.85c0-1.877-1.524-3.4-3.404-3.4zm0 1.7c.94 0 1.703.76 1.703 1.7v.85h-3.405v-.85c0-.94.762-1.7 1.702-1.7z" fill="currentColor"/></svg>