<svg width="24" height="24" viewBox="0 0 24 24" fill="none" xmlns="http://www.w3.org/2000/svg"><path d="M11.998 3.514a3.402 3.402 0 0 0-3.404 3.4v.85h-.026c-1.433 0-2.7.924-3.166 2.285-.12.352-.252 1.006-.398 1.965-.068.447-.14.96-.213 1.514-.102.768-.4 3.454-.4 3.454-.298 1.909.97 3.532 2.846 3.532h9.522c1.877 0 3.144-1.623 2.846-3.532a.982.982 0 0 0 0-.24c-.022-.24-.253-2.445-.346-3.214-.19-1.584-.366-2.725-.558-3.32-.029-.088-.075-.166-.107-.239-.585-1.331-1.704-2.182-3.165-2.205h-.027v-.85c0-1.877-1.524-3.4-3.404-3.4zm0 1.7c.94 0 1.703.76 1.703 1.7v.85h-3.405v-.85c0-.94.762-1.7 1.702-1.7zm-3.43 4.25h6.834c.743.012 1.319.443 1.65 1.195l.026.08c.145.45.329 1.537.506 3.002a191.296 191.296 0 0 1 .346 3.453c.148.966-.37 1.62-1.17 1.62H7.236c-.8 0-1.311-.66-1.17-1.567 0 0 .325-2.75.426-3.506.072-.544.146-1.026.212-1.462.13-.85.244-1.452.32-1.672.23-.674.841-1.143 1.543-1.143z" fill="currentColor"/></svg>