<svg width="24" height="24" viewBox="0 0 24 24" fill="none" xmlns="http://www.w3.org/2000/svg"><path d="M14 19.95A2.346 2.346 0 0 1 12.043 21a2.346 2.346 0 0 1-1.956-1.05M17.6 9c0 .672.194 1.283.421 1.813.15.35.341.722.514 1.059.076.148.149.289.213.418.46.933.678 1.635.404 2.41-.257.724-.611 1.254-1.51 1.657-.99.443-2.67.743-5.642.743-2.946 0-4.666-.372-5.677-.85-.953-.452-1.292-1.004-1.47-1.535-.263-.791-.039-1.503.417-2.434l.206-.41c.172-.337.362-.71.51-1.064.224-.53.414-1.138.414-1.807 0-2.727 2.689-5.1 5.6-5.1 2.911 0 5.6 2.373 5.6 5.1z" stroke="currentColor" stroke-width="1.8" stroke-linecap="round"/></svg>