<svg width="24" height="24" viewBox="0 0 24 24" fill="none" xmlns="http://www.w3.org/2000/svg"><path fill="#fff" d="M0 0h24v24H0z"/><path fill-rule="evenodd" clip-rule="evenodd" d="M12.043 3a6.33 6.33 0 0 0-6.33 6.33v.098c0 1-.628 1.875-1.197 2.697a3.436 3.436 0 0 0-.611 1.962c0 1.667 1.19 3.097 2.842 3.326 1.64.227 3.688.456 5.296.456s3.656-.229 5.296-.456c1.65-.229 2.842-1.659 2.842-3.326 0-.728-.226-1.404-.611-1.961-.57-.823-1.198-1.698-1.198-2.698V9.33A6.33 6.33 0 0 0 12.042 3z" fill="currentColor"/><path d="M14 19.95A2.346 2.346 0 0 1 12.043 21a2.346 2.346 0 0 1-1.956-1.05" stroke="currentColor" stroke-width="2" stroke-linecap="round"/></svg>