<svg width="48" height="48" viewBox="0 0 48 48" fill="none" xmlns="http://www.w3.org/2000/svg"><path d="M24 14.889l12.052-1.34A3.555 3.555 0 0 1 40 17.085V33.04a3.556 3.556 0 0 1-3.163 3.534L24 38V14.889z" fill="url(#paint0_linear_29_666)"/><path d="M24 14.889l-12.052-1.34A3.555 3.555 0 0 0 8 17.085V33.04a3.556 3.556 0 0 0 3.163 3.534L24 38V14.889z" fill="url(#paint1_linear_29_666)"/><path d="M24 14.889l6.822-4.873c2.354-1.681 5.622 0 5.622 2.893V27.28a3.556 3.556 0 0 1-1.489 2.893L24 38V14.889z" fill="#FFEDBF"/><path d="M24 14.889l-6.822-4.873c-2.354-1.681-5.623 0-5.623 2.893V27.28c0 1.148.555 2.226 1.49 2.893L24 38V14.889z" fill="#FFD686"/><defs><linearGradient id="paint0_linear_29_666" x1="32" y1="13.111" x2="32" y2="38" gradientUnits="userSpaceOnUse"><stop stop-color="#FFD25E"/><stop offset="1" stop-color="#FF881A"/></linearGradient><linearGradient id="paint1_linear_29_666" x1="16" y1="13.111" x2="16" y2="38" gradientUnits="userSpaceOnUse"><stop stop-color="#FFD25E"/><stop offset="1" stop-color="#FF881A"/></linearGradient></defs></svg>