<svg width="24" height="24" viewBox="0 0 24 24" fill="none" xmlns="http://www.w3.org/2000/svg"><path d="M15.54 20.697H4.914c-.768 0-1.48-.356-1.94-.978a2.408 2.408 0 0 1-.372-2.176l3.404-10.94a2.411 2.411 0 0 1 2.313-1.715h9.946c.978 0 1.86.583 2.232 1.488.202.47.242 1.003.12 1.529l-2.724 10.94a2.407 2.407 0 0 1-2.353 1.852zM8.327 6.109c-.526 0-1.003.348-1.157.858l-3.404 10.94c-.113.38-.048.777.194 1.1.227.307.582.485.962.485h10.626c.558 0 1.043-.38 1.172-.922l2.725-10.948a1.183 1.183 0 0 0-.056-.769 1.202 1.202 0 0 0-1.116-.752H8.327v.008z" fill="currentColor" stroke="currentColor" stroke-width=".5"/><path d="M6 10.5h13.5" stroke="currentColor" stroke-width="1.8" stroke-linecap="round"/><path d="M19.098 20.697h-3.865a.61.61 0 0 1-.607-.606.61.61 0 0 1 .607-.607h3.865c.331 0 .639-.137.865-.38.226-.242.34-.566.315-.897l-.8-11.014a.606.606 0 0 1 .558-.647.611.611 0 0 1 .647.558l.8 11.014a2.411 2.411 0 0 1-.639 1.811 2.35 2.35 0 0 1-1.746.768zM10.122 8.067c-.049 0-.097-.009-.146-.017a.607.607 0 0 1-.445-.736l.841-3.493a.607.607 0 1 1 1.181.291l-.84 3.494a.605.605 0 0 1-.591.46zM15.54 8.074c-.04 0-.09 0-.13-.016a.619.619 0 0 1-.469-.72l.76-3.509a.613.613 0 0 1 .72-.469.615.615 0 0 1 .47.72l-.761 3.51a.597.597 0 0 1-.59.484z" fill="currentColor" stroke="currentColor" stroke-width=".5"/><path d="M10 13.5h3s-.785 1.33-1 2c-.238.744-.5 1.5-.5 1.5" stroke="currentColor" stroke-width="1.8" stroke-linecap="round" stroke-linejoin="round"/></svg>