<svg width="24" height="24" viewBox="0 0 24 24" fill="none" xmlns="http://www.w3.org/2000/svg"><path d="M9.299 2.964a.853.853 0 0 0-.62.253L7.135 4.764h-.535a3.6 3.6 0 0 0-3.6 3.6v8.1a3.6 3.6 0 0 0 3.6 3.6h10.8a3.6 3.6 0 0 0 3.6-3.6v-8.1a3.6 3.6 0 0 0-3.6-3.6h-.506l-1.547-1.547a.918.918 0 0 0-.647-.253h-5.4zm.394 1.8h4.64L15.88 6.31c.169.168.38.253.619.253h.9a1.8 1.8 0 0 1 1.8 1.8v8.1a1.8 1.8 0 0 1-1.8 1.8h-10.8a1.8 1.8 0 0 1-1.8-1.8v-8.1a1.8 1.8 0 0 1 1.8-1.8h.9a.918.918 0 0 0 .647-.253l1.547-1.547zM12 7.464a4.5 4.5 0 1 0 .001 9 4.5 4.5 0 0 0-.001-9zm5.4 0a.9.9 0 1 0 0 1.8.9.9 0 0 0 0-1.8zm-5.4 1.8a2.7 2.7 0 1 1 0 5.4 2.7 2.7 0 0 1 0-5.4z" fill="currentColor"/></svg>