<svg width="24" height="24" viewBox="0 0 24 24" fill="none" xmlns="http://www.w3.org/2000/svg"><g clip-path="url(#clip0_313_20)"><path fill-rule="evenodd" clip-rule="evenodd" d="M13.56 15.98l3.84-4.8c1.04-1.3.1-3.24-1.56-3.24H8.16c-1.66 0-2.6 1.94-1.56 3.24l3.84 4.8c.8 1 2.32 1 3.12 0z" fill="#fff"/><g clip-path="url(#clip1_313_20)"><path fill-rule="evenodd" clip-rule="evenodd" d="M14.139 17.976l5.263-6.553C20.828 9.648 19.54 7 17.264 7H6.736c-2.275 0-3.564 2.648-2.138 4.423l5.264 6.553a2.745 2.745 0 0 0 4.277 0z" fill="currentColor"/></g></g><defs><clipPath id="clip0_313_20"><path fill="#fff" d="M0 0h24v24H0z"/></clipPath><clipPath id="clip1_313_20"><path fill="#fff" d="M0 0h24v24H0z"/></clipPath></defs></svg>