<svg width="24" height="24" viewBox="0 0 24 24" fill="none" xmlns="http://www.w3.org/2000/svg"><path d="M7.278 3.5A3.778 3.778 0 0 0 3.5 7.278v9.444A3.778 3.778 0 0 0 7.278 20.5h9.444a3.778 3.778 0 0 0 3.778-3.778V7.278A3.778 3.778 0 0 0 16.722 3.5H7.278zm8.5 5.49c.242 0 .494.08.679.265a.935.935 0 0 1 0 1.328l-3.542 3.542c-1.086 1.086-2.748.924-3.6-.354l-.945-1.417a.967.967 0 0 1 .265-1.328.966.966 0 0 1 1.329.266l.944 1.416c.191.287.435.303.679.059l3.512-3.512a.958.958 0 0 1 .679-.266z" fill="currentColor"/></svg>