<svg width="24" height="24" viewBox="0 0 24 24" fill="none" xmlns="http://www.w3.org/2000/svg"><path d="M7.278 3.5A3.778 3.778 0 0 0 3.5 7.278v9.444A3.778 3.778 0 0 0 7.278 20.5h9.444a3.778 3.778 0 0 0 3.778-3.778V7.278A3.778 3.778 0 0 0 16.722 3.5H7.278zm0 1.889h9.444c1.044 0 1.89.845 1.89 1.889v9.444a1.888 1.888 0 0 1-1.89 1.89H7.278a1.889 1.889 0 0 1-1.89-1.89V7.278c0-1.044.847-1.89 1.89-1.89zm8.5 3.6a.959.959 0 0 0-.68.266l-3.512 3.512c-.242.244-.487.228-.678-.059l-.944-1.416a.966.966 0 0 0-1.329-.266.967.967 0 0 0-.265 1.328l.944 1.417c.853 1.278 2.515 1.44 3.601.354l3.542-3.542a.936.936 0 0 0 0-1.328.959.959 0 0 0-.68-.266z" fill="currentColor"/></svg>