<svg width="24" height="24" viewBox="0 0 24 24" fill="none" xmlns="http://www.w3.org/2000/svg"><path fill="#fff" d="M0 0h24v24H0z"/><path d="M12 21c-4.965 0-9-4.035-9-9s4.035-9 9-9 9 4.035 9 9-4.035 9-9 9zm0-16.744C7.73 4.256 4.256 7.73 4.256 12S7.73 19.744 12 19.744 19.744 16.27 19.744 12 16.27 4.256 12 4.256z" fill="currentColor" stroke="currentColor" stroke-width=".5"/><path d="M8.417 10.523c0 .16.058.319.184.444l2.955 2.955a.632.632 0 0 0 .888 0l2.955-2.955a.632.632 0 0 0 0-.887.632.632 0 0 0-.887 0L12 12.59 9.488 10.08a.632.632 0 0 0-.887 0 .594.594 0 0 0-.184.443z" fill="currentColor" stroke="currentColor" stroke-width=".5"/></svg>