<svg width="24" height="24" viewBox="0 0 24 24" fill="none" xmlns="http://www.w3.org/2000/svg"><path d="M12 3a9 9 0 1 0 0 18 9 9 0 0 0 9-9 9 9 0 0 0-9-9zM9.3 8.4c.23 0 .471.077.647.253L12 10.706l2.053-2.053A.913.913 0 0 1 14.7 8.4c.23 0 .47.077.647.253a.927.927 0 0 1 0 1.294L13.294 12l2.053 2.053a.927.927 0 0 1 0 1.294.927.927 0 0 1-1.294 0L12 13.294l-2.053 2.053a.927.927 0 0 1-1.294 0 .926.926 0 0 1 0-1.294L10.706 12 8.653 9.947a.926.926 0 0 1 0-1.294A.912.912 0 0 1 9.3 8.4z" fill="currentColor"/></svg>