<svg width="24" height="24" viewBox="0 0 24 24" fill="none" xmlns="http://www.w3.org/2000/svg"><path fill="#fff" d="M0 0h24v24H0z"/><path d="M12 3a9 9 0 0 0-9 9 9 9 0 0 0 9 9 9 9 0 0 0 9-9 9 9 0 0 0-9-9zm0 1.8a7.2 7.2 0 1 1 0 14.4 7.2 7.2 0 0 1 0-14.4zM9.3 8.4c-.23 0-.47.077-.647.253a.927.927 0 0 0 0 1.294L10.706 12l-2.053 2.053a.927.927 0 0 0 0 1.294.927.927 0 0 0 1.294 0L12 13.294l2.053 2.053a.927.927 0 0 0 1.294 0 .927.927 0 0 0 0-1.294L13.294 12l2.053-2.053a.927.927 0 0 0 0-1.294.913.913 0 0 0-.647-.253c-.23 0-.47.077-.647.253L12 10.706 9.947 8.653A.913.913 0 0 0 9.3 8.4z" fill="currentColor"/></svg>