<svg width="24" height="24" viewBox="0 0 24 24" fill="none" xmlns="http://www.w3.org/2000/svg"><path d="M21 12a9 9 0 1 1-18 0 9 9 0 0 1 18 0z" fill="currentColor"/><path d="M14.709 13.594a.781.781 0 0 1 0 1.106.785.785 0 0 1-.558.235.74.74 0 0 1-.549-.235L12 13.108 10.398 14.7a.785.785 0 0 1-.558.235.792.792 0 0 1-.558-1.35l1.602-1.593-1.602-1.603a.792.792 0 0 1 0-1.115.791.791 0 0 1 1.116 0L12 10.875l1.593-1.601a.791.791 0 0 1 1.116 0 .792.792 0 0 1 0 1.115l-1.602 1.603 1.602 1.602z" fill="#fff"/></svg>