<svg width="24" height="24" viewBox="0 0 24 24" fill="none" xmlns="http://www.w3.org/2000/svg"><path fill="#fff" d="M0 0h24v24H0z"/><path d="M5.436 4.412c-.24 0-.49.08-.673.263a.964.964 0 0 0 0 1.347l5.884 5.885-5.884 5.884a.964.964 0 0 0 0 1.347.965.965 0 0 0 1.347 0l5.884-5.884 5.884 5.884a.965.965 0 0 0 1.347 0 .964.964 0 0 0 0-1.347l-5.884-5.884 5.884-5.885a.964.964 0 0 0 0-1.347.95.95 0 0 0-.673-.263c-.24 0-.49.08-.674.263l-5.884 5.884L6.11 4.675a.949.949 0 0 0-.674-.263z" fill="currentColor"/></svg>