<svg width="48" height="48" viewBox="0 0 48 48" fill="none" xmlns="http://www.w3.org/2000/svg"><rect x="9.882" y="8" width="28.235" height="30" rx="3.529" fill="url(#paint0_linear_29_653)"/><path d="M13.411 15.059a3.53 3.53 0 0 1 3.53-3.53h14.117a3.53 3.53 0 0 1 3.53 3.53V27.16c0 1.361-.796 2.58-2.117 2.904-1.71.419-4.49.877-8.471.877-3.982 0-6.762-.458-8.472-.877-1.321-.324-2.117-1.543-2.117-2.904V15.06z" fill="#FFFCE2"/><path d="M19.681 16.828a1.193 1.193 0 1 1 2.111-1.111l2.601 5.184 2.601-5.184a1.193 1.193 0 1 1 2.11 1.11l-2.75 4.987h1.844a.64.64 0 1 1 0 1.281h-2.549a.033.033 0 0 0-.033.033v1.598h2.582a.64.64 0 1 1 0 1.28h-2.582v1.69a1.223 1.223 0 1 1-2.446 0v-1.69h-2.562a.64.64 0 1 1 0-1.28h2.562v-1.598a.033.033 0 0 0-.033-.033h-2.53a.64.64 0 1 1 0-1.281h1.826l-2.752-4.986z" fill="#FF5C26"/><defs><linearGradient id="paint0_linear_29_653" x1="14.45" y1="11.889" x2="37.924" y2="14.87" gradientUnits="userSpaceOnUse"><stop stop-color="#FF981E"/><stop offset="1" stop-color="#FF5027"/></linearGradient></defs></svg>