<svg width="24" height="24" viewBox="0 0 24 24" fill="none" xmlns="http://www.w3.org/2000/svg"><path fill-rule="evenodd" clip-rule="evenodd" d="M7.276 4.217c-1.642.232-2.963 1.374-3.304 2.996A23.34 23.34 0 0 0 3.5 12c0 1.864.196 3.407.431 4.585.347 1.74 1.8 2.938 3.558 3.181 1.26.174 2.804.33 4.309.33 1.565 0 3.255-.168 4.633-.35 1.802-.24 3.304-1.45 3.652-3.234A23.58 23.58 0 0 0 20.5 12c0-1.91-.206-3.484-.449-4.674-.344-1.688-1.74-2.86-3.448-3.092a36.131 36.131 0 0 0-4.805-.33c-1.794 0-3.338.146-4.522.313zm2.458 3.561a.794.794 0 0 0 0 1.123l.772.772H9.154a.797.797 0 1 0 0 1.593h1.85v1.063h-1.85a.797.797 0 0 0 0 1.593h1.85v1.332a.794.794 0 1 0 1.588 0v-1.332h1.85a.797.797 0 1 0 0-1.593h-1.85v-1.063h1.85a.797.797 0 0 0 0-1.593h-1.343l.76-.76a.797.797 0 1 0-1.127-1.127l-.934.933-.94-.94a.794.794 0 0 0-1.124 0z" fill="currentColor"/></svg>