<svg width="24" height="24" viewBox="0 0 24 24" fill="none" xmlns="http://www.w3.org/2000/svg"><path fill-rule="evenodd" clip-rule="evenodd" d="M3.972 7.213c.341-1.622 1.662-2.764 3.304-2.996a32.527 32.527 0 0 1 4.522-.312c1.854 0 3.518.155 4.804.329 1.708.231 3.105 1.404 3.449 3.092.243 1.19.449 2.763.449 4.674a23.58 23.58 0 0 1-.417 4.512c-.348 1.783-1.85 2.994-3.651 3.233-1.379.183-3.07.35-4.634.35-1.505 0-3.048-.155-4.309-.329-1.757-.243-3.211-1.44-3.558-3.18A23.519 23.519 0 0 1 3.5 12c0-1.972.22-3.584.472-4.787z" fill="currentColor"/><path fill-rule="evenodd" clip-rule="evenodd" d="M9.734 8.901a.794.794 0 1 1 1.123-1.123l.941.941.934-.933a.797.797 0 1 1 1.127 1.127l-.76.76h1.342a.797.797 0 1 1 0 1.593h-1.85v1.063h1.85a.797.797 0 0 1 0 1.593h-1.85v1.332a.794.794 0 1 1-1.587 0v-1.332h-1.85a.797.797 0 1 1 0-1.593h1.85v-1.063h-1.85a.797.797 0 0 1 0-1.593h1.352L9.734 8.9z" fill="#fff"/></svg>