<svg width="24" height="24" viewBox="0 0 24 24" fill="none" xmlns="http://www.w3.org/2000/svg"><path fill="#fff" d="M0 0h24v24H0z"/><path fill-rule="evenodd" clip-rule="evenodd" d="M12 3a9 9 0 1 0 0 18 9 9 0 0 0 0-18z" fill="currentColor"/><path d="M10.668 10.668l3.7-1.036-1.036 3.7-3.7 1.036 1.036-3.7z" fill="#fff"/><path fill-rule="evenodd" clip-rule="evenodd" d="M13.937 13.502a.628.628 0 0 1-.436.435l-3.7 1.036a.628.628 0 0 1-.774-.774l1.036-3.7a.628.628 0 0 1 .435-.435l3.7-1.036a.628.628 0 0 1 .774.774l-1.035 3.7zm-.475-2.964l-2.285.64-.64 2.285 2.285-.64.64-2.285z" fill="#fff"/></svg>