<svg width="24" height="24" viewBox="0 0 24 24" fill="none" xmlns="http://www.w3.org/2000/svg"><path d="M16.311 14.152H7.68a.633.633 0 0 1-.628-.628c0-.343.285-.628.628-.628h8.631a.627.627 0 1 1 0 1.256zM7.688 11.104a.621.621 0 0 1-.443-.184.632.632 0 0 1 0-.887L9.79 7.487a.632.632 0 0 1 .887 0 .632.632 0 0 1 0 .888L8.132 10.92a.621.621 0 0 1-.444.184z" fill="currentColor" stroke="currentColor" stroke-width=".5"/><path d="M16.311 11.104H7.68a.632.632 0 0 1-.628-.628c0-.343.285-.628.628-.628h8.631a.627.627 0 1 1 0 1.256z" fill="currentColor" stroke="currentColor" stroke-width=".5"/><path d="M12 21c-4.965 0-9-4.035-9-9s4.035-9 9-9 9 4.035 9 9-4.035 9-9 9zm0-16.744C7.73 4.256 4.256 7.73 4.256 12S7.73 19.744 12 19.744 19.744 16.27 19.744 12 16.27 4.256 12 4.256z" fill="currentColor" stroke="currentColor" stroke-width=".5"/></svg>