<svg width="24" height="24" viewBox="0 0 24 24" fill="none" xmlns="http://www.w3.org/2000/svg"><path fill="#fff" d="M0 0h24v24H0z"/><path d="M5.801 18.214L5.077 8.07A1 1 0 0 1 6.074 7h11.852a1 1 0 0 1 .998 1.071l-.725 10.143A3 3 0 0 1 15.207 21H8.793a3 3 0 0 1-2.992-2.786z" fill="currentColor"/><path d="M19.386 7.676h-.065c-4.341-.435-8.674-.6-12.966-.165l-1.674.165a.62.62 0 0 1-.132-1.231l1.674-.165c4.366-.443 8.79-.27 13.22.165a.616.616 0 0 1 .55.673.608.608 0 0 1-.607.558z" fill="currentColor" stroke="currentColor" stroke-width=".615"/><path d="M9.128 6.846c-.033 0-.065 0-.106-.008a.618.618 0 0 1-.501-.706l.18-1.075c.132-.788.312-1.88 2.224-1.88h2.15c1.92 0 2.101 1.133 2.224 1.888l.181 1.067a.61.61 0 0 1-.5.706.61.61 0 0 1-.706-.5l-.18-1.068c-.116-.714-.14-.853-1.01-.853h-2.15c-.87 0-.887.115-1.01.845L9.736 6.33a.616.616 0 0 1-.608.517z" fill="currentColor" stroke="currentColor" stroke-width=".615"/><rect x="9" y="11" width="6" height="1.26" rx=".63" fill="#fff"/><rect x="10" y="15" width="4" height="1.26" rx=".63" fill="#fff"/></svg>