<svg width="24" height="24" viewBox="0 0 24 24" fill="none" xmlns="http://www.w3.org/2000/svg"><path d="M14.863 3.001H9.137c-4.312 0-6.156 1.844-6.156 6.156v.114c0 3.9 1.537 5.778 4.98 6.103a.678.678 0 0 0 .72-.597.66.66 0 0 0-.598-.72c-2.757-.255-3.785-1.554-3.785-4.795v-.114c0-3.574 1.265-4.838 4.84-4.838h5.725c3.574 0 4.838 1.264 4.838 4.838v.114c0 3.258-1.045 4.558-3.855 4.795a.658.658 0 0 0 .114 1.309c3.495-.299 5.058-2.187 5.058-6.112V9.14C21.018 4.845 19.174 3 14.863 3z" fill="currentColor" stroke="currentColor" stroke-width=".5"/><path d="M12 8.71a.663.663 0 0 0-.659.658v9.993c0 .36.299.659.659.659.36 0 .659-.299.659-.659V9.368a.663.663 0 0 0-.66-.659z" fill="currentColor" stroke="currentColor" stroke-width=".5"/><path d="M14.942 16.744a.651.651 0 0 0-.466.194L12 19.414l-2.477-2.476a.662.662 0 0 0-.93 0 .663.663 0 0 0 0 .93l2.941 2.942a.663.663 0 0 0 .931 0l2.942-2.942a.663.663 0 0 0 0-.93.637.637 0 0 0-.465-.194z" fill="currentColor" stroke="currentColor" stroke-width=".5"/></svg>