<svg width="24" height="24" viewBox="0 0 24 24" fill="none" xmlns="http://www.w3.org/2000/svg"><path fill="#fff" d="M0 0h24v24H0z"/><path d="M14.512 21H9.488C4.942 21 3 19.058 3 14.512V9.488C3 4.942 4.942 3 9.488 3h5.024C19.058 3 21 4.942 21 9.488v5.024C21 19.058 19.058 21 14.512 21zM9.488 4.256c-3.86 0-5.232 1.373-5.232 5.232v5.024c0 3.86 1.373 5.232 5.232 5.232h5.024c3.86 0 5.232-1.373 5.232-5.232V9.488c0-3.86-1.373-5.232-5.232-5.232H9.488z" fill="currentColor" stroke="currentColor" stroke-width=".5"/><path d="M12 14.73a.62.62 0 0 1-.444-.185l-2.511-2.512a.632.632 0 0 1 0-.887.632.632 0 0 1 .887 0L12 13.214l2.068-2.068a.632.632 0 0 1 .887 0 .632.632 0 0 1 0 .887l-2.511 2.512a.62.62 0 0 1-.444.184z" fill="currentColor" stroke="currentColor" stroke-width=".5"/><path d="M12 14.73a.632.632 0 0 1-.628-.629V7.404c0-.344.285-.628.628-.628s.628.284.628.628V14.1a.627.627 0 0 1-.628.628zM12 17.216a16.57 16.57 0 0 1-5.224-.846.63.63 0 0 1-.394-.795.62.62 0 0 1 .796-.393 15.35 15.35 0 0 0 9.653 0 .63.63 0 0 1 .795.393.63.63 0 0 1-.393.795c-1.692.57-3.466.846-5.233.846z" fill="currentColor" stroke="currentColor" stroke-width=".5"/></svg>