<svg width="24" height="24" viewBox="0 0 24 24" fill="none" xmlns="http://www.w3.org/2000/svg"><path fill="#fff" d="M0 0h24v24H0z"/><path fill-rule="evenodd" clip-rule="evenodd" d="M16 4.8H8A3.2 3.2 0 0 0 4.8 8v8A3.2 3.2 0 0 0 8 19.2h8a3.2 3.2 0 0 0 3.2-3.2V8A3.2 3.2 0 0 0 16 4.8zM8 3a5 5 0 0 0-5 5v8a5 5 0 0 0 5 5h8a5 5 0 0 0 5-5V8a5 5 0 0 0-5-5H8z" fill="currentColor"/><path fill-rule="evenodd" clip-rule="evenodd" d="M14.694 7.88a.92.92 0 0 0-1.302.001l-.958.96 2.744 2.746.956-.98a.922.922 0 0 0-.009-1.295l-1.43-1.431zm.002 4.201l-2.75-2.75-3.453 3.457a1.382 1.382 0 0 0-.403.918l-.066 1.59a.69.69 0 0 0 .69.72h1.565c.372 0 .729-.15.988-.417l3.43-3.518z" fill="currentColor"/></svg>