<svg width="24" height="24" viewBox="0 0 24 24" fill="none" xmlns="http://www.w3.org/2000/svg"><path fill="#fff" d="M0 0h24v24H0z"/><path fill-rule="evenodd" clip-rule="evenodd" d="M8 3a5 5 0 0 0-5 5v8a5 5 0 0 0 5 5h8a5 5 0 0 0 5-5V8a5 5 0 0 0-5-5H8zm5.392 4.881a.92.92 0 0 1 1.302 0l1.431 1.43c.357.357.36.935.009 1.296l-.956.98-2.745-2.745.96-.96zm-1.447 1.45l2.751 2.75-3.429 3.518a1.38 1.38 0 0 1-.988.417H8.713a.69.69 0 0 1-.69-.72l.067-1.59c.015-.345.159-.673.403-.918l3.452-3.458z" fill="currentColor"/></svg>