<svg width="24" height="24" viewBox="0 0 24 24" fill="none" xmlns="http://www.w3.org/2000/svg"><path d="M3.085 11.25c-.09-.343.047-.558.203-.638 1.103-.567 3.567-1.483 7.998-1.483 4.43 0 6.895.916 7.998 1.483.155.08.292.295.202.637l-1.135 4.352a4.374 4.374 0 0 1-4.233 3.27H8.453a4.374 4.374 0 0 1-4.233-3.27L3.085 11.25z" stroke="#333" stroke-width="1.686"/><path d="M14.855 18.052l.96.958a3.7 3.7 0 0 0 5.228 0l.959-.958a2.865 2.865 0 0 0 0-4.055 2.874 2.874 0 0 0-3.573-.39 2.874 2.874 0 0 0-3.574.39 2.865 2.865 0 0 0 0 4.055z" fill="#fff" stroke="#fff" stroke-width="1.686" stroke-linejoin="round"/><path d="M14.737 17.456l.959.957a2.857 2.857 0 0 0 4.037 0l.959-.957a2.022 2.022 0 0 0 0-2.863 2.03 2.03 0 0 0-2.867 0l-.11.11-.11-.11a2.03 2.03 0 0 0-2.868 0 2.022 2.022 0 0 0 0 2.863z" fill="#fff" stroke="#0681FF" stroke-width="1.686" stroke-linejoin="round"/><path d="M15.877 6.535c2.101 0 3.353 3.292 1.97 4.536-1.452 1.305-11.819.756-13.132 0-1.313-.756-.15-3.456 1.313-3.024-.525-3.023 1.532-3.275 2.627-3.024 0-.755 1.97-3.023 3.939-.755 1.313-.756 3.283 0 3.283 2.267z" fill="#fff" stroke="#333" stroke-width="1.686" stroke-linejoin="round"/></svg>