<svg width="24" height="24" viewBox="0 0 24 24" fill="none" xmlns="http://www.w3.org/2000/svg"><path fill-rule="evenodd" clip-rule="evenodd" d="M16.53 4.873a3.228 3.228 0 0 0-2.545-.229c-.517-.457-1.062-.733-1.619-.841a2.935 2.935 0 0 0-1.863.26c-.52.254-.944.627-1.242 1a3.11 3.11 0 0 0-.295.44c-.634-.033-1.387.07-2.025.495-.806.537-1.25 1.458-1.2 2.754a2.834 2.834 0 0 0-.839.32c-.472.272-.926.714-1.132 1.296a12.133 12.133 0 0 0-.854.358c-.66.31-.912 1.052-.712 1.755l1.28 4.505a5.478 5.478 0 0 0 5.27 3.981h7.243c2.449 0 4.6-1.625 5.27-3.981l1.28-4.505c.199-.703-.053-1.445-.713-1.755a10.346 10.346 0 0 0-.726-.309 3.667 3.667 0 0 0-.466-1.377c-.501-.867-1.38-1.596-2.509-1.812-.178-1.096-.784-1.906-1.602-2.355zm4.054 7.565l.016.012c.077-.102.144-.208.204-.316a5.61 5.61 0 0 0 .113-.176l.193.085a.26.26 0 0 1-.007.028l-1.28 4.505a3.978 3.978 0 0 1-3.826 2.891H8.753a3.978 3.978 0 0 1-3.827-2.89l-1.28-4.506a.268.268 0 0 1-.006-.028L3.74 12c.216.34.48.643.789.908.722.62 1.608.971 2.47 1.184 1.655.41 3.682.41 5.392.409h.11c.34 0 .742.006 1.15.012.497.008 1.001.016 1.407.013.828-.007 1.693-.052 2.513-.24.837-.192 1.67-.542 2.392-1.183.227-.2.434-.422.622-.664zm-1.076-1.067c.198-.414.17-1.002-.165-1.58-.373-.646-1.055-1.129-1.906-1.129a.75.75 0 0 1-.75-.75c0-.936-.41-1.467-.878-1.723a1.723 1.723 0 0 0-1.631 0 .75.75 0 0 1-.915-.153c-.457-.501-.864-.699-1.184-.761a1.437 1.437 0 0 0-.92.136 2.18 2.18 0 0 0-.725.588c-.088.11-.148.209-.183.283a.494.494 0 0 0-.027.07.75.75 0 0 1-.91.705c-.506-.11-1.136-.08-1.541.19-.313.208-.713.711-.457 2.118a.75.75 0 0 1-.94.856c-.157-.043-.435-.016-.725.151-.288.166-.446.387-.484.558-.026.113-.032.346.351.688.411.365 1.216.793 2.664 1.154l-.006.024C9.494 13 11.026 13 12.5 13c.416 0 .823.007 1.22.013 2.504.042 4.58.076 5.788-1.642z" fill="currentColor"/></svg>