<svg width="24" height="24" viewBox="0 0 24 24" fill="none" xmlns="http://www.w3.org/2000/svg"><path d="M2.925 12.276c-.12-.427.05-.75.31-.871 1.292-.607 4.116-1.557 9.14-1.557 5.024 0 7.848.95 9.14 1.557.26.122.43.444.31.87l-1.28 4.506a4.728 4.728 0 0 1-4.548 3.436H8.753a4.728 4.728 0 0 1-4.548-3.436l-1.28-4.505z" stroke="currentColor" stroke-width="1.5"/><path d="M17.437 7.912c2.316 0 3.696 3.457 2.171 4.762-1.6 1.371-13.03.794-14.477 0-1.448-.793-.165-3.629 1.448-3.174-.58-3.175 1.689-3.44 2.895-3.175 0-.794 2.172-3.175 4.343-.794 1.448-.794 3.62 0 3.62 2.381z" fill="#fff" stroke="currentColor" stroke-width="1.5" stroke-linejoin="round"/></svg>