<svg width="24" height="24" viewBox="0 0 24 24" fill="none" xmlns="http://www.w3.org/2000/svg"><path fill="#fff" d="M0 0h24v24H0z"/><path d="M7.276 3.49A3.778 3.778 0 0 0 3.498 7.27v2.833a.945.945 0 0 0 1.889 0V7.269c0-1.044.845-1.89 1.889-1.89h2.833a.945.945 0 0 0 0-1.888H7.276zm6.61 0a.945.945 0 0 0 0 1.89h2.834c1.044 0 1.89.845 1.89 1.889v2.833a.945.945 0 0 0 1.888 0V7.269A3.778 3.778 0 0 0 16.72 3.49h-2.833zm-9.444 9.445a.945.945 0 0 0-.944.945v2.833a3.778 3.778 0 0 0 3.778 3.778h2.833a.945.945 0 0 0 0-1.89H7.276a1.888 1.888 0 0 1-1.89-1.888V13.88a.945.945 0 0 0-.944-.945zm15.112 0a.945.945 0 0 0-.945.945v2.833a1.888 1.888 0 0 1-1.889 1.889h-2.833a.945.945 0 0 0 0 1.889h2.833a3.778 3.778 0 0 0 3.778-3.778V13.88a.945.945 0 0 0-.944-.945z" fill="currentColor"/></svg>