<svg width="24" height="24" viewBox="0 0 24 24" fill="none" xmlns="http://www.w3.org/2000/svg"><path d="M12.014 2.999a9 9 0 0 0-9 9 9 9 0 0 0 9 9 9 9 0 0 0 9-9 9 9 0 0 0-9-9zm-2.7 5.035c.9 0 1.8.416 1.8 1.265a.9.9 0 0 1-.9.9.865.865 0 0 1-.675-.337c-.063-.013-.128-.028-.225-.028-.098 0-.162.015-.225.028a.865.865 0 0 1-.675.337.9.9 0 0 1-.9-.9c0-.849.9-1.265 1.8-1.265zm5.4 0c.977 0 1.8.295 1.8 1.265a.9.9 0 0 1-.9.9.865.865 0 0 1-.675-.337c-.063-.013-.128-.028-.225-.028-.098 0-.162.015-.225.028a.865.865 0 0 1-.675.337.9.9 0 0 1-.9-.9c0-.97.822-1.265 1.8-1.265zm-7.116 3.993c1.743-.024 7.144-.025 8.831 0a.89.89 0 0 1 .872 1.07 5.415 5.415 0 0 1-5.287 4.302 5.412 5.412 0 0 1-5.288-4.303.89.89 0 0 1 .872-1.07z" fill="currentColor"/></svg>