<svg width="24" height="24" viewBox="0 0 24 24" fill="none" xmlns="http://www.w3.org/2000/svg"><path fill="#fff" d="M0 0h24v24H0z"/><path d="M7.949 3.89a4.95 4.95 0 0 0-4.95 4.95c0 2.866 1.632 5.57 4.331 8.045.922.844 1.913 1.585 2.897 2.25.345.232.667.443.956.618.177.107.293.185.366.225a.95.95 0 0 0 .9 0c.073-.04.19-.118.366-.225.289-.175.611-.386.956-.618.984-.665 1.975-1.406 2.897-2.25 2.699-2.475 4.331-5.179 4.331-8.044a4.95 4.95 0 0 0-4.95-4.95c-1.553 0-3.069.846-4.022 2.08-.93-1.256-2.44-2.08-4.078-2.08zm0 1.8a3.31 3.31 0 0 1 2.7 1.407c.057.082.507.744.59.872a.9.9 0 0 0 1.491.028l.619-.872c.613-.856 1.686-1.434 2.7-1.434a3.15 3.15 0 0 1 3.15 3.15c0 2.253-1.405 4.527-3.769 6.694-.85.78-1.757 1.49-2.672 2.109-.276.187-.523.333-.759.478-.236-.145-.483-.291-.76-.478a23.275 23.275 0 0 1-2.671-2.109c-2.364-2.167-3.769-4.441-3.769-6.694a3.15 3.15 0 0 1 3.15-3.15z" fill="currentColor"/></svg>