<svg width="24" height="24" viewBox="0 0 24 24" fill="none" xmlns="http://www.w3.org/2000/svg"><path d="M8.625 3.514c-1.965 0-3.427 1.321-3.427 3.4 0 .85 1.046 2.405 1.434 2.922.203.27.422.52.638.77.098.114.194.237.292.346.084.092.12.142.186.212v1.7c-.066.07-.102.12-.186.213-.315.349-.634.722-.93 1.115-.388.518-1.434 2.072-1.434 2.922 0 2.08 1.463 3.4 3.427 3.4h6.8c1.961 0 3.373-1.316 3.373-3.4 0-.85-1.05-2.407-1.434-2.922a16.3 16.3 0 0 0-.93-1.115c-.084-.094-.12-.141-.186-.213v-1.7c.066-.071.102-.119.186-.212.315-.35.634-.721.93-1.116.385-.515 1.434-2.072 1.434-2.922 0-2.083-1.412-3.4-3.373-3.4h-6.8zm3.373 11.05c.85 0 2.55 1.7 3.4 3.4h-6.8c.85-1.7 2.55-3.4 3.4-3.4z" fill="currentColor"/></svg>