<svg width="24" height="24" viewBox="0 0 24 24" fill="none" xmlns="http://www.w3.org/2000/svg"><path d="M8.625 3.514c-1.964 0-3.42 1.321-3.427 3.4-.002.553.165 1.126.478 1.753.245.491.568.997.956 1.515.296.392.615.766.93 1.115.084.093.12.142.186.212v1.01c-.066.07-.102.12-.186.213-.315.348-.634.722-.93 1.115a9.96 9.96 0 0 0-.956 1.514c-.313.627-.48 1.2-.478 1.753.008 2.08 1.463 3.4 3.427 3.4h6.8c1.961 0 3.38-1.316 3.373-3.4-.002-.55-.165-1.128-.478-1.753-.244-.487-.57-1-.956-1.514a16.477 16.477 0 0 0-.93-1.115c-.084-.094-.12-.142-.186-.213v-1.01c.066-.07.102-.119.186-.212.315-.35.634-.721.93-1.115.385-.516.712-1.027.956-1.515.313-.625.476-1.203.478-1.753.008-2.083-1.412-3.4-3.373-3.4h-6.8zm0 1.7h6.8c1.048 0 1.677.588 1.673 1.7 0 .247-.113.599-.319 1.01a8.52 8.52 0 0 1-.796 1.248c-.263.35-.54.694-.824 1.01-.169.187-.302.301-.372.371a.867.867 0 0 0-.239.611v1.7c0 .225.08.451.239.611.07.07.203.184.372.372.283.315.561.659.824 1.01.329.439.603.86.796 1.247.206.412.318.764.32 1.01.003 1.112-.626 1.7-1.675 1.7h-6.8c-1.06 0-1.722-.595-1.726-1.7 0-.245.114-.6.319-1.01a8.36 8.36 0 0 1 .797-1.247c.262-.35.54-.697.823-1.01.169-.187.302-.303.372-.372a.862.862 0 0 0 .24-.61v-1.7a.862.862 0 0 0-.24-.612c-.07-.069-.203-.184-.372-.371-.283-.314-.56-.66-.823-1.01a8.355 8.355 0 0 1-.797-1.248c-.205-.41-.32-.765-.319-1.01.004-1.105.665-1.7 1.727-1.7zm3.373 8.5c-.85 0-2.55 1.7-3.4 3.4h6.8c-.85-1.7-2.55-3.4-3.4-3.4z" fill="currentColor"/></svg>