<svg width="24" height="24" viewBox="0 0 24 24" fill="none" xmlns="http://www.w3.org/2000/svg"><path fill="#fff" d="M0 0h24v24H0z"/><path d="M12 4c-4.948 0-9 3.601-9 8.1 0 1.415.398 2.79 1.153 3.994.406.647.444 1.567-.168 2.812a.905.905 0 0 0 .73 1.294c1.222.116 2.253-.089 3.657-.675 1.118.436 2.382.675 3.628.675 4.948 0 9-3.602 9-8.1C21 7.601 16.948 4 12 4zm0 1.8c3.999 0 7.2 2.846 7.2 6.3 0 3.454-3.201 6.3-7.2 6.3a7.999 7.999 0 0 1-3.262-.675.908.908 0 0 0-.732 0c-.828.363-1.297.561-1.912.647.34-1.174.09-2.418-.422-3.234A5.69 5.69 0 0 1 4.8 12.1c0-3.454 3.201-6.3 7.2-6.3zM8.4 9.428a.9.9 0 0 0 0 1.8h7.2a.9.9 0 0 0 0-1.8H8.4zm0 3.6a.9.9 0 0 0 0 1.8h4.5a.9.9 0 0 0 0-1.8H8.4z" fill="currentColor"/></svg>