<svg width="24" height="24" viewBox="0 0 24 24" fill="none" xmlns="http://www.w3.org/2000/svg"><path fill="#fff" d="M0 0h24v24H0z"/><path d="M7.276 3.49A3.778 3.778 0 0 0 3.498 7.27v9.444a3.778 3.778 0 0 0 3.778 3.778h9.444a3.778 3.778 0 0 0 3.778-3.778V7.269A3.778 3.778 0 0 0 16.72 3.49H7.276zm4.722 3.779a.945.945 0 1 1 0 1.89.945.945 0 0 1 0-1.89zm-.944 2.833h.944a.93.93 0 0 1 .915 1.122l-.708 3.6h.738a.945.945 0 0 1 0 1.889h-.945c-1.117 0-1.901-.97-1.682-2.066l.56-2.715c-.428-.09-.767-.43-.767-.886 0-.521.423-.944.945-.944z" fill="currentColor"/></svg>