<svg width="24" height="24" viewBox="0 0 24 24" fill="none" xmlns="http://www.w3.org/2000/svg"><path d="M12.014 3.87c-4.949 0-9 3.6-9 8.1a7.49 7.49 0 0 0 1.153 3.993c.405.647.443 1.568-.169 2.812a.905.905 0 0 0 .731 1.294c1.221.117 2.253-.089 3.657-.675 1.118.436 2.382.675 3.628.675 4.948 0 9-3.601 9-8.1s-4.052-8.1-9-8.1zm0 1.8c3.998 0 7.2 2.845 7.2 6.3 0 3.454-3.202 6.3-7.2 6.3a8 8 0 0 1-3.263-.676.908.908 0 0 0-.732 0c-.828.363-1.296.561-1.911.647.34-1.174.09-2.418-.422-3.234a5.69 5.69 0 0 1-.872-3.038c0-3.454 3.201-6.3 7.2-6.3zm-3.6 5.4a.9.9 0 1 0 0 1.799.9.9 0 0 0 0-1.8zm3.6 0a.9.9 0 1 0 0 1.799.9.9 0 0 0 0-1.8zm3.6 0a.9.9 0 1 0 0 1.799.9.9 0 0 0 0-1.8z" fill="currentColor"/></svg>