<svg width="24" height="24" viewBox="0 0 24 24" fill="none" xmlns="http://www.w3.org/2000/svg"><path d="M7.276 3.49A3.778 3.778 0 0 0 3.498 7.27v9.444a3.778 3.778 0 0 0 3.778 3.778h9.444a3.778 3.778 0 0 0 3.778-3.778V7.269A3.778 3.778 0 0 0 16.72 3.49H7.276zm0 1.89h9.444c1.044 0 1.89.845 1.89 1.889v9.444a1.888 1.888 0 0 1-1.89 1.889H7.276a1.888 1.888 0 0 1-1.89-1.889V7.269c0-1.044.846-1.89 1.89-1.89zm4.722 1.889a.945.945 0 1 0 0 1.89.945.945 0 0 0 0-1.89zm-.944 2.833a.945.945 0 0 0-.945.944c0 .456.34.796.767.886l-.56 2.714c-.22 1.097.565 2.067 1.682 2.067h.945a.945.945 0 0 0 0-1.889h-.738l.708-3.6a.93.93 0 0 0-.915-1.122h-.944z" fill="currentColor"/></svg>