<svg width="24" height="24" viewBox="0 0 24 24" fill="none" xmlns="http://www.w3.org/2000/svg"><path fill="#fff" d="M0 0h24v24H0z"/><path opacity=".989" d="M11.999 3.014a9 9 0 0 0-9 9 9 9 0 0 0 9 9 9 9 0 0 0 9-9 9 9 0 0 0-9-9zm0 1.8a7.2 7.2 0 1 1 0 14.4 7.2 7.2 0 0 1 0-14.4zm0 2.7a.9.9 0 1 0 0 1.8.9.9 0 0 0 0-1.8zm-.9 2.7a.9.9 0 0 0-.9.9c0 .434.323.758.73.844l-.533 2.587c-.209 1.045.538 1.97 1.603 1.97h.9a.9.9 0 0 0 0-1.8h-.703l.675-3.432A.887.887 0 0 0 12 10.214h-.9z" fill="currentColor"/></svg>