<svg width="24" height="24" viewBox="0 0 24 24" fill="none" xmlns="http://www.w3.org/2000/svg"><path fill="#fff" d="M0 0h24v24H0z"/><path d="M9.881 14.747a.621.621 0 0 1-.444-.184A3.605 3.605 0 0 1 8.374 12 3.627 3.627 0 0 1 12 8.374c.963 0 1.876.377 2.562 1.064a.628.628 0 0 1 0 .887l-4.237 4.238a.621.621 0 0 1-.444.184zM12 9.63a2.373 2.373 0 0 0-2.06 3.542l3.232-3.232A2.358 2.358 0 0 0 12 9.63z" fill="currentColor" stroke="currentColor" stroke-width=".5"/><path d="M6.64 17.452a.638.638 0 0 1-.41-.151c-.896-.762-1.7-1.7-2.386-2.789-.888-1.381-.888-3.634 0-5.024C5.887 6.289 8.86 4.447 12 4.447c1.842 0 3.66.636 5.25 1.834a.628.628 0 0 1-.753 1.005C15.124 6.247 13.566 5.703 12 5.703c-2.705 0-5.292 1.624-7.101 4.463-.628.98-.628 2.688 0 3.668s1.348 1.825 2.144 2.512c.26.226.293.62.067.888a.608.608 0 0 1-.47.218zM12 19.554a8.268 8.268 0 0 1-3.25-.67.628.628 0 0 1 .486-1.156c.888.377 1.818.57 2.755.57 2.705 0 5.293-1.625 7.102-4.464.628-.98.628-2.688 0-3.668-.26-.41-.545-.804-.846-1.172a.636.636 0 0 1 .092-.888.628.628 0 0 1 .888.092c.326.402.645.838.93 1.29.887 1.382.887 3.634 0 5.024-2.044 3.2-5.017 5.042-8.157 5.042z" fill="currentColor" stroke="currentColor" stroke-width=".5"/><path d="M12.578 15.576a.635.635 0 0 1-.62-.511.616.616 0 0 1 .503-.729 2.362 2.362 0 0 0 1.859-1.859.635.635 0 0 1 .737-.502c.343.067.57.394.502.737a3.598 3.598 0 0 1-2.864 2.864c-.042-.008-.075 0-.117 0zM3.626 21.002a.62.62 0 0 1-.444-.184.632.632 0 0 1 0-.888l6.255-6.255a.632.632 0 0 1 .888 0 .632.632 0 0 1 0 .888L4.07 20.818a.62.62 0 0 1-.444.184zM14.119 10.51a.621.621 0 0 1-.444-.185.632.632 0 0 1 0-.887l6.255-6.256a.632.632 0 0 1 .888 0 .632.632 0 0 1 0 .888l-6.256 6.255a.621.621 0 0 1-.443.185z" fill="currentColor" stroke="currentColor" stroke-width=".5"/></svg>