<svg width="24" height="24" viewBox="0 0 24 24" fill="none" xmlns="http://www.w3.org/2000/svg"><path d="M12.014 2.953a9 9 0 0 0-9 9 9 9 0 0 0 9 9 9 9 0 0 0 9-9 9 9 0 0 0-9-9zm0 1.8a7.2 7.2 0 1 1 0 14.4 7.2 7.2 0 0 1 0-14.4zm0 2.7c-1.233 0-2.305.82-2.616 1.997a.93.93 0 0 0 .646 1.125.901.901 0 0 0 1.098-.647.9.9 0 0 1 1.772.225c.002.43-.236.88-.703 1.35-.12.12-.271.239-.422.365l-.338.282a.931.931 0 0 0-.112 1.293c.32.381.885.405 1.265.085.027-.022.276-.205.366-.28.188-.16.344-.317.506-.48.773-.775 1.241-1.617 1.238-2.615a2.705 2.705 0 0 0-2.7-2.7zm0 7.2a.9.9 0 1 0 0 1.8.9.9 0 0 0 0-1.8z" fill="currentColor"/></svg>