<svg width="24" height="24" viewBox="0 0 24 24" fill="none" xmlns="http://www.w3.org/2000/svg"><path fill="#fff" d="M0 0h24v24H0z"/><path d="M7.269 3.43a3.778 3.778 0 0 0-3.778 3.777v9.445A3.778 3.778 0 0 0 7.27 20.43h9.444a3.778 3.778 0 0 0 3.778-3.778V7.207a3.778 3.778 0 0 0-3.778-3.777H7.27zm0 1.889h9.444c1.044 0 1.89.845 1.89 1.888v9.445a1.889 1.889 0 0 1-1.89 1.889H7.27a1.889 1.889 0 0 1-1.889-1.89V7.208c0-1.043.846-1.888 1.889-1.888zm4.663 1.888a2.829 2.829 0 0 0-2.745 2.096.976.976 0 0 0 .68 1.18.945.945 0 0 0 1.15-.678.944.944 0 0 1 1.86.236c.001.451-.248.923-.738 1.416-.127.127-.284.25-.443.384l-.354.296a.977.977 0 0 0-.118 1.357c.336.4.93.425 1.328.088.028-.023.29-.215.384-.294.197-.167.361-.332.53-.503.812-.814 1.303-1.697 1.3-2.744a2.838 2.838 0 0 0-2.834-2.834zm0 7.556a.945.945 0 1 0 0 1.89.945.945 0 0 0 0-1.89z" fill="currentColor"/></svg>