<svg width="24" height="24" viewBox="0 0 24 24" fill="none" xmlns="http://www.w3.org/2000/svg"><path d="M7.269 3.43a3.778 3.778 0 0 0-3.778 3.777v9.445A3.778 3.778 0 0 0 7.27 20.43h9.444a3.778 3.778 0 0 0 3.778-3.778V7.207a3.778 3.778 0 0 0-3.778-3.777H7.27zm4.663 3.777a2.838 2.838 0 0 1 2.833 2.834c.004 1.047-.487 1.93-1.298 2.744-.17.171-.334.336-.531.503-.095.08-.356.27-.384.294-.399.337-.992.311-1.328-.088a.977.977 0 0 1 .118-1.357l.354-.296c.159-.133.316-.257.443-.383.49-.494.74-.966.738-1.417a.944.944 0 0 0-1.86-.236.945.945 0 0 1-1.15.679.976.976 0 0 1-.68-1.18 2.829 2.829 0 0 1 2.745-2.097zm0 7.556a.945.945 0 1 1 0 1.89.945.945 0 0 1 0-1.89z" fill="currentColor"/></svg>