<svg width="24" height="24" viewBox="0 0 24 24" fill="none" xmlns="http://www.w3.org/2000/svg"><path fill="#fff" d="M0 0h24v24H0z"/><path d="M12.015 2.953a9 9 0 0 0-9 9 9 9 0 0 0 9 9 9 9 0 0 0 9-9 9 9 0 0 0-9-9zm0 4.5c1.49 0 2.694 1.21 2.7 2.7.003.998-.465 1.84-1.238 2.615-.162.163-.318.32-.507.48-.089.075-.338.258-.365.28-.38.32-.945.296-1.265-.085a.931.931 0 0 1 .112-1.293l.338-.282c.15-.126.301-.244.422-.365.467-.47.704-.92.703-1.35a.9.9 0 0 0-1.772-.225.901.901 0 0 1-1.098.647A.93.93 0 0 1 9.4 9.45a2.695 2.695 0 0 1 2.616-1.997zm0 7.2a.9.9 0 1 1-.001 1.8.9.9 0 0 1 0-1.8z" fill="currentColor"/></svg>