<svg width="24" height="24" viewBox="0 0 24 24" fill="none" xmlns="http://www.w3.org/2000/svg"><path fill="#fff" d="M0 0h24v24H0z"/><path d="M4.818 11.347c0-3.96 3.222-7.182 7.182-7.182 3.96 0 7.182 3.221 7.182 7.182 0 1.014-.56 2.339-1.527 3.81-.945 1.438-2.182 2.872-3.324 4.071a3.184 3.184 0 0 1-4.662 0c-1.142-1.2-2.379-2.633-3.323-4.07-.968-1.472-1.528-2.797-1.528-3.811z" stroke="currentColor" stroke-width="2"/><path d="M8.91 11.652a3.084 3.084 0 0 1 3.095-3.096 3.082 3.082 0 0 1 3.086 3.096 3.08 3.08 0 0 1-3.086 3.086 3.082 3.082 0 0 1-3.096-3.086z" stroke="currentColor" stroke-width="2"/></svg>