<svg width="24" height="24" viewBox="0 0 24 24" fill="none" xmlns="http://www.w3.org/2000/svg"><path d="M16.744 11.012a.597.597 0 0 1-.593-.594v-1.58c0-2.492-.704-4.152-4.15-4.152-3.448 0-4.152 1.66-4.152 4.151v1.582a.597.597 0 0 1-.593.593.597.597 0 0 1-.593-.594v-1.58C6.663 6.543 7.216 3.5 12 3.5s5.337 3.044 5.337 5.337v1.582a.597.597 0 0 1-.593.593zM12 17.733a2.575 2.575 0 0 1-2.57-2.57 2.575 2.575 0 0 1 2.57-2.57 2.575 2.575 0 0 1 2.57 2.57 2.575 2.575 0 0 1-2.57 2.57zm0-3.954a1.39 1.39 0 0 0-1.384 1.384c0 .759.625 1.383 1.384 1.383a1.39 1.39 0 0 0 1.384-1.383A1.39 1.39 0 0 0 12 13.779z" fill="currentColor" stroke="currentColor" stroke-width=".5"/><path d="M15.954 20.5H8.046C4.56 20.5 3.5 19.44 3.5 15.954v-1.582c0-3.487 1.06-4.546 4.547-4.546h7.906c3.488 0 4.547 1.06 4.547 4.546v1.582c0 3.486-1.06 4.546-4.546 4.546zm-7.907-9.488c-2.831 0-3.361.537-3.361 3.36v1.582c0 2.822.53 3.36 3.36 3.36h7.908c2.83 0 3.36-.538 3.36-3.36v-1.582c0-2.823-.53-3.36-3.36-3.36H8.046z" fill="currentColor" stroke="currentColor" stroke-width=".5"/></svg>