<svg width="24" height="24" viewBox="0 0 24 24" fill="none" xmlns="http://www.w3.org/2000/svg"><path fill="#fff" d="M0 0h24v24H0z"/><path d="M12 17.733c-.806 0-1.55-.364-2.04-1.005a.592.592 0 1 1 .941-.72c.261.349.664.539 1.1.539a1.39 1.39 0 0 0 1.383-1.384c0-.309-.095-.601-.285-.838a.592.592 0 1 1 .941-.72c.348.45.53.989.53 1.558a2.575 2.575 0 0 1-2.57 2.57z" fill="currentColor" stroke="currentColor" stroke-width=".5"/><path d="M15.954 20.5H8.046c-.293 0-.57-.008-.83-.024a.598.598 0 0 1-.562-.624c.016-.325.292-.562.625-.562.237.016.49.016.759.016h7.907c2.822 0 3.36-.538 3.36-3.36v-1.582c0-2.775-.585-3.226-2.601-3.344-.238-.016-.49-.016-.76-.016H8.048c-2.823 0-3.361.537-3.361 3.36v1.582c0 1.375.158 2.19.522 2.633a.584.584 0 0 1-.095.83.584.584 0 0 1-.83-.095c-.554-.672-.783-1.653-.783-3.36v-1.582c0-3.487 1.06-4.546 4.547-4.546h7.906c.293 0 .57.008.823.023 3.131.174 3.724 1.724 3.724 4.523v1.582c0 3.486-1.06 4.546-4.546 4.546z" fill="currentColor" stroke="currentColor" stroke-width=".5"/><path d="M7.256 11.012a.597.597 0 0 1-.593-.594v-1.58C6.663 6.543 7.216 3.5 12 3.5c3.218 0 4.887 1.052 5.25 3.313a.59.59 0 0 1-.49.68.59.59 0 0 1-.68-.49C15.882 5.8 15.258 4.686 12 4.686c-3.447 0-4.151 1.66-4.151 4.151v1.582a.597.597 0 0 1-.593.593z" fill="currentColor" stroke="currentColor" stroke-width=".5"/><path d="M4.093 20.5c-.15 0-.3-.055-.42-.174a.597.597 0 0 1 0-.838L19.489 3.674c.23-.23.609-.23.838 0 .23.23.23.609 0 .838L4.512 20.326a.586.586 0 0 1-.419.174z" fill="currentColor" stroke="currentColor" stroke-width=".5"/></svg>