<svg width="24" height="24" viewBox="0 0 24 24" fill="none" xmlns="http://www.w3.org/2000/svg"><path d="M6.614 4.798a3.6 3.6 0 0 0-3.6 3.6v7.2a3.6 3.6 0 0 0 3.6 3.6h10.8a3.6 3.6 0 0 0 3.6-3.6v-7.2a3.6 3.6 0 0 0-3.6-3.6h-10.8zm0 1.8h10.8c.907 0 1.657.666 1.78 1.539-.861.804-2.143 1.79-2.99 2.399-1.948 1.399-3.663 2.362-4.19 2.362-.528 0-2.242-.962-4.19-2.362a37.335 37.335 0 0 1-2.307-1.8 11.286 11.286 0 0 1-.619-.563c.124-.873.808-1.575 1.716-1.575zm-1.791 3.919c2.284 1.847 5.631 4.17 7.19 4.181 1.017.007 2.755-.963 4.528-2.188.917-.634 1.937-1.388 2.674-2.006l-.001 5.094a1.8 1.8 0 0 1-1.8 1.8h-10.8a1.8 1.8 0 0 1-1.8-1.8l.009-5.081z" fill="currentColor"/></svg>