<svg width="24" height="24" viewBox="0 0 24 24" fill="none" xmlns="http://www.w3.org/2000/svg"><path d="M6.558 4.798c-1.83 0-3.264.463-3.516 2.222a1.75 1.75 0 0 0 .506 1.518c.204.2.419.436.703.675.714.603 1.624 1.28 2.475 1.885 2.343 1.665 4.192 2.7 5.288 2.7 1.095 0 2.945-1.035 5.287-2.7.853-.606 1.762-1.283 2.475-1.885.285-.239.5-.475.703-.675.41-.4.588-.954.507-1.518-.253-1.76-1.686-2.222-3.517-2.222H6.559zm-3.544 5.54v5.26a3.6 3.6 0 0 0 3.6 3.6h10.8a3.6 3.6 0 0 0 3.6-3.6v-5.26a23.51 23.51 0 0 1-2.728 2.25c-2.553 1.808-4.845 3.01-6.272 3.01-1.428 0-3.72-1.202-6.272-3.01a23.434 23.434 0 0 1-2.728-2.25z" fill="currentColor"/></svg>