<svg width="24" height="24" viewBox="0 0 24 24" fill="none" xmlns="http://www.w3.org/2000/svg"><path fill="#fff" d="M0 0h24v24H0z"/><path d="M12.014 3.899c-.905 0-2.308.657-4.275 1.827-.301.18-.61.365-.928.563-.799.5-1.608 1.041-2.39 1.575-.275.187-.99.667-1.041.704-.02.013-.011.041-.029.056a.864.864 0 0 0-.337.702v7.172a3.6 3.6 0 0 0 3.6 3.6h10.8a3.6 3.6 0 0 0 3.6-3.6V9.326 9.3c0-.28-.137-.51-.338-.675-.017-.015-.009-.043-.028-.056-.051-.037-.767-.517-1.04-.704a73.234 73.234 0 0 0-2.391-1.575 52.282 52.282 0 0 0-.928-.563c-1.967-1.17-3.37-1.827-4.275-1.827zm0 1.8c.439 0 1.704.597 3.347 1.575.29.171.592.342.9.534.748.467 1.511.96 2.25 1.463l-3.938 2.643c-1.05-.485-1.969-.816-2.56-.816-.59 0-1.508.33-2.559.816L5.517 9.27a68.95 68.95 0 0 1 2.25-1.463c.307-.192.61-.362.9-.534 1.642-.978 2.908-1.575 3.347-1.575zm-7.2 5.287l2.812 1.885c-.28.157-.492.246-.787.422-.885.524-1.44.91-2.025 1.32v-3.627zm14.4 0v3.628c-.586-.41-1.14-.797-2.025-1.321-.296-.176-.507-.265-.788-.422l2.813-1.885zm-7.2 1.912c.575 0 2.322.783 4.275 1.94.855.509 1.662 1.051 2.278 1.491.23.165.477.35.622.472a1.792 1.792 0 0 1-1.775 1.498h-10.8c-.894 0-1.655-.632-1.796-1.486.146-.123.413-.319.643-.484.615-.44 1.423-.982 2.278-1.49 1.953-1.16 3.7-1.94 4.275-1.94z" fill="currentColor"/></svg>