<svg width="24" height="24" viewBox="0 0 24 24" fill="none" xmlns="http://www.w3.org/2000/svg"><path fill="#fff" d="M0 0h24v24H0z"/><path d="M12.014 3.899c-.905 0-2.308.657-4.275 1.827-.301.18-.61.365-.928.563-.8.5-1.608 1.041-2.391 1.575-.133.09-.292.193-.506.337l5.54 3.713c1.072-.499 2.026-.815 2.56-.815.464 0 1.444.332 2.475.872.565-.375 5.625-3.77 5.625-3.77-.215-.144-.374-.246-.507-.337a73.04 73.04 0 0 0-2.39-1.575 52.04 52.04 0 0 0-.928-.563c-1.967-1.17-3.37-1.827-4.275-1.827zm-9 5.877v6.075c1.505-1.063 3.14-2.158 4.612-2.98L3.014 9.776zm18 .028s-3.369 2.209-4.725 3.123a57.643 57.643 0 0 1 4.725 2.952V9.804zm-9 3.095c-1.161 0-5.568 2.614-8.72 4.978a3.594 3.594 0 0 0 3.32 2.222h10.8c1.418 0 2.765-.91 3.318-2.195-3.178-2.27-7.786-5.005-8.718-5.005z" fill="currentColor"/></svg>