<svg width="24" height="24" viewBox="0 0 24 24" fill="none" xmlns="http://www.w3.org/2000/svg"><path fill="#fff" d="M0 0h24v24H0z"/><path d="M5.35 7.605C5.35 6.011 6.873 4.5 9.04 4.5h5.922c2.167 0 3.69 1.51 3.69 3.105v11.38c0 .133-.08.305-.332.425a.92.92 0 0 1-.84-.024l-4.321-2.432c-.711-.4-1.605-.4-2.316 0l-4.32 2.432.49.871-.49-.871a.92.92 0 0 1-.841.024c-.253-.12-.33-.292-.33-.425V7.605z" stroke="currentColor" stroke-width="2"/><path d="M8 9a1 1 0 0 1 1-1h6a1 1 0 1 1 0 2H9a1 1 0 0 1-1-1z" fill="currentColor"/></svg>