<svg width="24" height="24" viewBox="0 0 24 24" fill="none" xmlns="http://www.w3.org/2000/svg"><path d="M1.875 9.246v2.216c0 .52.18 1.032.528 1.437l.566-.487-.566.487c.94 1.091 3.73 4.22 6.204 5.74 1.634 1.004 4.08 1.892 5.449 2.35a2.201 2.201 0 0 0 2.56-.925l3.661-5.796a2.25 2.25 0 0 0 .348-1.202v-.988a2.309 2.309 0 0 0-1.722-2.219c-1.387-.37-3.61-1.05-5.023-1.88-1.514-.891-3.244-2.631-4.36-3.856-.872-.958-2.404-1.05-3.35-.104L2.534 7.655a2.25 2.25 0 0 0-.659 1.591z" fill="#fff" stroke="#000" stroke-width="1.5" stroke-linejoin="round"/><path d="M19.875 10.5c-.93.836-3.172 4.575-4.261 6.438-.36.617-1.1.9-1.769.649-1.412-.531-3.789-1.513-5.22-2.587-2.252-1.69-4.716-4.435-5.804-5.699-.356-.414-.456-.998-.176-1.467C3.745 5.988 5.9 4.44 7.194 3.622c.604-.381 1.381-.226 1.866.298 1.052 1.14 3.013 3.081 5.19 4.33 2.625 1.137 4.364 1.757 5.625 2.25z" fill="#2B9BFF"/><path d="M19.875 10.5c-.93.836-3.172 4.575-4.261 6.438-.36.617-1.1.9-1.769.649-1.412-.531-3.789-1.513-5.22-2.587-2.252-1.69-4.716-4.435-5.804-5.699-.356-.414-.456-.998-.176-1.467C3.745 5.988 5.9 4.44 7.194 3.622c.604-.381 1.381-.226 1.866.298 1.052 1.14 3.013 3.081 5.19 4.33m5.625 2.25c-1.26-.493-3-1.113-5.625-2.25m5.625 2.25S16.5 9.347 14.25 8.25" stroke="#000" stroke-width="1.5" stroke-linejoin="round"/><path fill-rule="evenodd" clip-rule="evenodd" d="M10.848 8.19a.447.447 0 1 1 .888.1l-.196 1.75 1.548-.621a.447.447 0 0 1 .333.829l-1.29.518.22.172a.447.447 0 0 1-.552.703l-.703-.551-.368.468.703.552a.447.447 0 1 1-.552.703l-.702-.552-.644.82a.447.447 0 0 1-.703-.551l.644-.82-.703-.552a.447.447 0 1 1 .551-.703l.703.552.368-.469-.703-.551a.447.447 0 0 1 .551-.703l.446.35.161-1.444z" fill="#000"/></svg>