<svg width="24" height="24" viewBox="0 0 24 24" fill="none" xmlns="http://www.w3.org/2000/svg"><path fill="#fff" d="M0 0h24v24H0z"/><path d="M12.014 2.999a9 9 0 0 0-9 9 9 9 0 0 0 9 9 9 9 0 0 0 9-9 9 9 0 0 0-9-9zm0 1.8a7.2 7.2 0 1 1 0 14.4 7.2 7.2 0 0 1 0-14.4zm-2.7 4.5a.9.9 0 0 0-.9.9v.9a.9.9 0 0 0 1.8 0v-.9a.9.9 0 0 0-.9-.9zm5.4.535c-.978 0-1.8.295-1.8 1.265a.9.9 0 0 0 .9.9c.28 0 .51-.137.675-.338.063-.012.127-.027.225-.027.097 0 .162.015.225.027.164.201.395.338.675.338a.9.9 0 0 0 .9-.9c0-.97-.823-1.265-1.8-1.265zm-5.231 3.825a.911.911 0 0 0-.647.252.89.89 0 0 0 0 1.266 4.488 4.488 0 0 0 3.178 1.322c1.204 0 2.34-.49 3.178-1.322a.89.89 0 0 0 0-1.265.891.891 0 0 0-1.266 0 2.71 2.71 0 0 1-1.912.787 2.696 2.696 0 0 1-1.913-.787.848.848 0 0 0-.618-.253z" fill="currentColor"/></svg>