<svg width="24" height="24" viewBox="0 0 24 24" fill="none" xmlns="http://www.w3.org/2000/svg"><path fill="#fff" d="M0 0h24v24H0z"/><path d="M12 3a9 9 0 0 0-9 9 9 9 0 0 0 9 9 9 9 0 0 0 9-9 9 9 0 0 0-9-9zM9.3 9.3a.9.9 0 0 1 .9.9v.9a.9.9 0 0 1-1.8 0v-.9a.9.9 0 0 1 .9-.9zm5.4.535c.977 0 1.8.295 1.8 1.265a.9.9 0 0 1-.9.9.864.864 0 0 1-.675-.338c-.063-.012-.128-.027-.225-.027s-.162.015-.225.027A.865.865 0 0 1 13.8 12a.9.9 0 0 1-.9-.9c0-.97.823-1.265 1.8-1.265zM9.47 13.66c.229 0 .442.077.617.252A2.696 2.696 0 0 0 12 14.7a2.71 2.71 0 0 0 1.912-.787.891.891 0 0 1 1.266 0 .89.89 0 0 1 0 1.265A4.512 4.512 0 0 1 12 16.5a4.488 4.488 0 0 1-3.178-1.322.89.89 0 0 1 0-1.266.911.911 0 0 1 .647-.252z" fill="currentColor"/></svg>