<svg width="24" height="24" viewBox="0 0 24 24" fill="none" xmlns="http://www.w3.org/2000/svg"><path fill-rule="evenodd" clip-rule="evenodd" d="M12.54 17.082a1.577 1.577 0 0 0-1.16.247l-1.937 1.313a1.577 1.577 0 0 1-2.448-1.095l-.304-2.268a1.577 1.577 0 0 0-.603-1.04l-1.812-1.391a1.577 1.577 0 0 1 .277-2.672L6.647 9.17c.371-.179.658-.496.799-.883l.796-2.19a1.577 1.577 0 0 1 2.617-.555l1.61 1.67c.286.298.679.471 1.092.483l2.31.063a1.577 1.577 0 0 1 1.342 2.33l-1.093 2.011a1.577 1.577 0 0 0-.128 1.194l.643 2.204a1.577 1.577 0 0 1-1.79 1.994l-2.305-.41z" fill="#0681FF"/><path fill-rule="evenodd" clip-rule="evenodd" d="M12.279 6.05a3.154 3.154 0 0 0-3.154 3.155v7.13a3.154 3.154 0 0 0 3.154 3.153h5.567A3.154 3.154 0 0 0 21 16.335v-7.13a3.154 3.154 0 0 0-3.154-3.154H12.28zm1.197 1.977a.79.79 0 0 0 0 1.58h3.173a.79.79 0 0 0 0-1.58h-3.173z" fill="url(#paint0_linear_29_594)" filter="url(#filter0_bd_29_594)"/><rect x="11.5" y="11.584" width="3.563" height="1.186" rx=".591" fill="#fff" filter="url(#filter1_b_29_594)"/><rect x="11.5" y="15.536" width="3.563" height="1.186" rx=".591" fill="#fff" filter="url(#filter2_b_29_594)"/><path d="M16.462 15.536l.976.79 1.406-1.185M16.462 11.98l.976.79 1.406-1.186" stroke="#fff" stroke-width="1.183" stroke-linecap="round" stroke-linejoin="round"/><defs><filter id="filter0_bd_29_594" x="8.053" y="4.979" width="14.018" height="15.581" filterUnits="userSpaceOnUse" color-interpolation-filters="sRGB"><feFlood flood-opacity="0" result="BackgroundImageFix"/><feGaussianBlur in="BackgroundImageFix" stdDeviation=".536"/><feComposite in2="SourceAlpha" operator="in" result="effect1_backgroundBlur_29_594"/><feColorMatrix in="SourceAlpha" values="0 0 0 0 0 0 0 0 0 0 0 0 0 0 0 0 0 0 127 0" result="hardAlpha"/><feOffset dx="-.313" dy="-.313"/><feColorMatrix values="0 0 0 0 1 0 0 0 0 1 0 0 0 0 1 0 0 0 1 0"/><feBlend in2="effect1_backgroundBlur_29_594" result="effect2_dropShadow_29_594"/><feBlend in="SourceGraphic" in2="effect2_dropShadow_29_594" result="shape"/></filter><filter id="filter1_b_29_594" x="10.45" y="10.534" width="5.662" height="3.286" filterUnits="userSpaceOnUse" color-interpolation-filters="sRGB"><feFlood flood-opacity="0" result="BackgroundImageFix"/><feGaussianBlur in="BackgroundImageFix" stdDeviation=".525"/><feComposite in2="SourceAlpha" operator="in" result="effect1_backgroundBlur_29_594"/><feBlend in="SourceGraphic" in2="effect1_backgroundBlur_29_594" result="shape"/></filter><filter id="filter2_b_29_594" x="10.45" y="14.486" width="5.662" height="3.286" filterUnits="userSpaceOnUse" color-interpolation-filters="sRGB"><feFlood flood-opacity="0" result="BackgroundImageFix"/><feGaussianBlur in="BackgroundImageFix" stdDeviation=".525"/><feComposite in2="SourceAlpha" operator="in" result="effect1_backgroundBlur_29_594"/><feBlend in="SourceGraphic" in2="effect1_backgroundBlur_29_594" result="shape"/></filter><linearGradient id="paint0_linear_29_594" x1="21.576" y1="15.803" x2="14.344" y2="9.977" gradientUnits="userSpaceOnUse"><stop stop-color="#B3D8FF"/><stop offset="1" stop-color="#E8F3FF" stop-opacity=".341"/></linearGradient></defs></svg>