<svg width="24" height="24" viewBox="0 0 24 24" fill="none" xmlns="http://www.w3.org/2000/svg"><path fill-rule="evenodd" clip-rule="evenodd" d="M7.908 12.48c.479 1.325 1.48 4.127 1.62 4.65.02.05.035.101.049.153.155.64-.208 1.278-.812 1.44l-.054.015c-.667.129-1.322-.332-1.462-1.03-.11-.408-.646-3.402-.904-4.837a.832.832 0 0 0-.498-.625 3.374 3.374 0 0 1-2-2.416c-.465-1.737.204-3.426 1.494-3.771 1.289-.346 2.714.782 3.187 2.549a3.371 3.371 0 0 1-.505 3.085.829.829 0 0 0-.115.787zm4.736-8.379a.4.4 0 0 1 .484.295l.902 3.367a2.515 2.515 0 0 1-.213 1.858c-.11.2-.247.383-.406.543a.325.325 0 0 0-.07.348l1.769 4.605c.301.957-.138 1.945-.961 2.166-.823.22-1.697-.416-1.916-1.395l-.736-4.87a.313.313 0 0 0-.232-.26A2.481 2.481 0 0 1 9.489 8.98l-.902-3.367a.4.4 0 0 1 .272-.498.401.401 0 0 1 .485.295l.875 3.267a.3.3 0 0 0 .364.222.3.3 0 0 0 .204-.374L9.91 5.258a.401.401 0 0 1 .273-.498.4.4 0 0 1 .484.295l.902 3.367a.202.202 0 0 0 .243.147.201.201 0 0 0 .136-.249l-.902-3.366a.4.4 0 0 1 .272-.498.401.401 0 0 1 .485.295l.875 3.267a.3.3 0 0 0 .364.221.3.3 0 0 0 .204-.373L12.37 4.6a.401.401 0 0 1 .273-.498z" fill="#0681FF"/><path fill-rule="evenodd" clip-rule="evenodd" d="M12.293 5.424a3.194 3.194 0 0 0-3.194 3.194v7.04a3.194 3.194 0 0 0 3.194 3.193h5.513A3.194 3.194 0 0 0 21 15.657V8.618a3.194 3.194 0 0 0-3.194-3.194h-5.513zM13.459 7.4a.79.79 0 1 0 0 1.58h3.18a.79.79 0 0 0 0-1.58h-3.18z" fill="url(#paint0_linear_29_581)" filter="url(#filter0_bd_29_581)"/><rect x="11.479" y="10.953" width="3.57" height="1.185" rx=".592" fill="#fff" filter="url(#filter1_b_29_581)"/><rect x="11.479" y="14.902" width="3.57" height="1.185" rx=".592" fill="#fff" filter="url(#filter2_b_29_581)"/><path d="M16.452 14.902l.978.79 1.41-1.185M16.452 11.348l.978.79 1.41-1.185" stroke="#fff" stroke-width="1.198" stroke-linecap="round" stroke-linejoin="round"/><defs><filter id="filter0_bd_29_581" x="8.013" y="4.339" width="14.072" height="15.598" filterUnits="userSpaceOnUse" color-interpolation-filters="sRGB"><feFlood flood-opacity="0" result="BackgroundImageFix"/><feGaussianBlur in="BackgroundImageFix" stdDeviation=".543"/><feComposite in2="SourceAlpha" operator="in" result="effect1_backgroundBlur_29_581"/><feColorMatrix in="SourceAlpha" values="0 0 0 0 0 0 0 0 0 0 0 0 0 0 0 0 0 0 127 0" result="hardAlpha"/><feOffset dx="-.305" dy="-.305"/><feColorMatrix values="0 0 0 0 1 0 0 0 0 1 0 0 0 0 1 0 0 0 1 0"/><feBlend in2="effect1_backgroundBlur_29_581" result="effect2_dropShadow_29_581"/><feBlend in="SourceGraphic" in2="effect2_dropShadow_29_581" result="shape"/></filter><filter id="filter1_b_29_581" x="10.415" y="9.89" width="5.697" height="3.312" filterUnits="userSpaceOnUse" color-interpolation-filters="sRGB"><feFlood flood-opacity="0" result="BackgroundImageFix"/><feGaussianBlur in="BackgroundImageFix" stdDeviation=".532"/><feComposite in2="SourceAlpha" operator="in" result="effect1_backgroundBlur_29_581"/><feBlend in="SourceGraphic" in2="effect1_backgroundBlur_29_581" result="shape"/></filter><filter id="filter2_b_29_581" x="10.415" y="13.839" width="5.697" height="3.312" filterUnits="userSpaceOnUse" color-interpolation-filters="sRGB"><feFlood flood-opacity="0" result="BackgroundImageFix"/><feGaussianBlur in="BackgroundImageFix" stdDeviation=".532"/><feComposite in2="SourceAlpha" operator="in" result="effect1_backgroundBlur_29_581"/><feBlend in="SourceGraphic" in2="effect1_backgroundBlur_29_581" result="shape"/></filter><linearGradient id="paint0_linear_29_581" x1="21.578" y1="15.169" x2="14.346" y2="9.326" gradientUnits="userSpaceOnUse"><stop stop-color="#B3D8FF"/><stop offset="1" stop-color="#E8F3FF" stop-opacity=".341"/></linearGradient></defs></svg>