<svg width="24" height="24" viewBox="0 0 24 24" fill="none" xmlns="http://www.w3.org/2000/svg"><path fill="#fff" d="M0 0h24v24H0z"/><path d="M8.474 4c-.494 0-.895.4-.895.895A3.58 3.58 0 0 0 4 8.474v8.947A3.58 3.58 0 0 0 7.579 21h8.947a3.579 3.579 0 0 0 3.58-3.579V8.474a3.579 3.579 0 0 0-3.58-3.58.894.894 0 1 0-1.79 0H9.369c0-.493-.4-.894-.894-.894zm0 4.474h7.158a.894.894 0 1 1 0 1.79H8.474a.895.895 0 0 1 0-1.79zm1.79 5.368h3.578a.894.894 0 1 1 0 1.79h-3.579a.895.895 0 0 1 0-1.79z" fill="currentColor"/></svg>