<svg width="24" height="24" viewBox="0 0 24 24" fill="none" xmlns="http://www.w3.org/2000/svg"><path d="M8.873 19.06h8c.41 0 .75-.34.75-.75s-.34-.75-.75-.75h-8a4.26 4.26 0 0 1-4.25-4.25 4.26 4.26 0 0 1 4.25-4.25h11c.41 0 .75-.34.75-.75s-.34-.75-.75-.75h-11c-3.17 0-5.75 2.58-5.75 5.75s2.58 5.75 5.75 5.75z" fill="currentColor" stroke="currentColor" stroke-width=".5"/><path d="M17.572 11.56c.19 0 .38-.07.53-.22l2.56-2.56c.29-.29.29-.77 0-1.06l-2.56-2.56a.754.754 0 0 0-1.06 0c-.29.29-.29.77 0 1.06l2.03 2.03-2.03 2.03c-.29.29-.29.77 0 1.06.14.15.34.22.53.22z" fill="currentColor" stroke="currentColor" stroke-width=".5"/></svg>