<svg width="24" height="24" viewBox="0 0 24 24" fill="none" xmlns="http://www.w3.org/2000/svg"><path d="M12 21c4.354 0 7.887-3.54 7.887-7.886 0-1.566-.46-3.081-1.331-4.388a.632.632 0 0 0-.87-.175.632.632 0 0 0-.177.87 6.636 6.636 0 0 1-5.518 10.315 6.636 6.636 0 0 1-6.63-6.63c0-3.66 2.98-6.632 6.639-6.632.77 0 1.524.109 2.236.327.334.1.686-.084.787-.419a.628.628 0 0 0-.42-.787A9.032 9.032 0 0 0 12 5.21c-4.354 0-7.887 3.542-7.887 7.887S7.646 21.001 12 21.001z" fill="currentColor" stroke="currentColor" stroke-width=".5"/><path d="M15.458 7.035a.627.627 0 0 0 .477-1.038l-2.42-2.78a.626.626 0 0 0-.887-.058.633.633 0 0 0-.059.887l2.42 2.771a.634.634 0 0 0 .469.218z" fill="currentColor" stroke="currentColor" stroke-width=".5"/><path d="M12.636 9.095c.126 0 .26-.042.369-.117l2.83-2.068a.629.629 0 0 0-.745-1.013l-2.822 2.06a.627.627 0 0 0-.134.878c.117.176.31.26.502.26z" fill="currentColor" stroke="currentColor" stroke-width=".5"/></svg>