<svg width="24" height="24" viewBox="0 0 24 24" fill="none" xmlns="http://www.w3.org/2000/svg"><path d="M12 21c-4.354 0-7.887-3.54-7.887-7.886 0-1.566.46-3.081 1.331-4.388a.632.632 0 0 1 .87-.175.632.632 0 0 1 .177.87 6.636 6.636 0 0 0 5.518 10.315 6.636 6.636 0 0 0 6.63-6.63c0-3.66-2.98-6.632-6.639-6.632-.77 0-1.524.109-2.236.327a.628.628 0 0 1-.787-.419.628.628 0 0 1 .419-.787A9.033 9.033 0 0 1 12 5.21c4.354 0 7.887 3.542 7.887 7.887S16.354 21.001 12 21.001z" fill="currentColor" stroke="currentColor" stroke-width=".5"/><path d="M8.542 7.035a.627.627 0 0 1-.477-1.038l2.42-2.78a.625.625 0 0 1 .887-.058c.26.226.285.627.059.887L9.01 6.817a.634.634 0 0 1-.469.218z" fill="currentColor" stroke="currentColor" stroke-width=".5"/><path d="M11.364 9.095a.662.662 0 0 1-.369-.117L8.165 6.91a.629.629 0 0 1 .745-1.013l2.822 2.06c.276.2.343.594.134.878a.594.594 0 0 1-.502.26z" fill="currentColor" stroke="currentColor" stroke-width=".5"/></svg>