<svg width="24" height="24" viewBox="0 0 24 24" fill="none" xmlns="http://www.w3.org/2000/svg"><path fill="#fff" d="M0 0h24v24H0z"/><path d="M12.014 2.999a9 9 0 0 0-9 9 9 9 0 0 0 9 9 9 9 0 0 0 9-9 9 9 0 0 0-9-9zm-2.7 6.3a.9.9 0 0 1 .9.9v.9a.9.9 0 0 1-1.8 0v-.9a.9.9 0 0 1 .9-.9zm5.4 0a.9.9 0 0 1 .9.9v.9a.9.9 0 0 1-1.8 0v-.9a.9.9 0 0 1 .9-.9zm-2.7 4.36c1.204 0 2.34.461 3.178 1.293a.891.891 0 0 1 0 1.266.892.892 0 0 1-1.266 0c-.503-.5-1.189-.76-1.912-.76-.727 0-1.409.285-1.913.788a.892.892 0 0 1-1.265 0 .925.925 0 0 1 0-1.294 4.461 4.461 0 0 1 3.178-1.293z" fill="currentColor"/></svg>