<svg width="24" height="24" viewBox="0 0 24 24" fill="none" xmlns="http://www.w3.org/2000/svg"><path fill="#fff" d="M0 0h24v24H0z"/><path d="M12.014 2.999a9 9 0 1 0 0 18 9 9 0 0 0 9-9 9 9 0 0 0-9-9zm0 1.8a7.2 7.2 0 1 1 0 14.4 7.2 7.2 0 0 1 0-14.4zm-2.7 4.5a.9.9 0 0 0-.9.9v.9a.9.9 0 0 0 1.8 0v-.9a.9.9 0 0 0-.9-.9zm5.4 0a.9.9 0 0 0-.9.9v.9a.9.9 0 0 0 1.8 0v-.9a.9.9 0 0 0-.9-.9zm-2.7 4.36c-1.208 0-2.34.456-3.178 1.293a.926.926 0 0 0 0 1.294.892.892 0 0 0 1.265 0 2.696 2.696 0 0 1 1.913-.787c.723 0 1.41.259 1.912.76a.892.892 0 0 0 1.266 0 .891.891 0 0 0 0-1.267 4.489 4.489 0 0 0-3.178-1.293z" fill="currentColor"/></svg>