<svg width="24" height="24" viewBox="0 0 24 24" fill="none" xmlns="http://www.w3.org/2000/svg"><path fill="#fff" d="M0 0h24v24H0z"/><path fill-rule="evenodd" clip-rule="evenodd" d="M9.355 3.274A9.017 9.017 0 0 1 11.57 3c.763 0 1.505.095 2.214.274.579.147.877.647.973 1.062.114.492.423.935.894 1.207.433.25.922.309 1.374.203.415-.098.994-.052 1.382.4a8.99 8.99 0 0 1 1.662 2.887c.222.637-.123 1.212-.487 1.512-.42.347-.687.87-.687 1.455 0 .585.267 1.108.687 1.455.364.3.71.874.487 1.512a8.992 8.992 0 0 1-1.662 2.886c-.388.452-.967.499-1.382.401a1.875 1.875 0 0 0-1.374.202c-.47.272-.78.715-.893 1.208-.097.415-.395.915-.974 1.061A9.017 9.017 0 0 1 11.57 21a9.017 9.017 0 0 1-2.215-.275c-.578-.146-.877-.646-.973-1.061a1.877 1.877 0 0 0-.894-1.208 1.875 1.875 0 0 0-1.374-.202c-.415.098-.994.051-1.382-.401a8.99 8.99 0 0 1-1.662-2.886c-.222-.638.123-1.212.487-1.512.42-.347.687-.87.687-1.455 0-.586-.266-1.108-.687-1.455-.364-.3-.71-.875-.487-1.512a8.99 8.99 0 0 1 1.663-2.886c.387-.453.967-.5 1.381-.401.452.106.941.047 1.374-.203.471-.272.78-.715.894-1.207.096-.415.395-.915.973-1.062zm2.214 11.238a2.512 2.512 0 1 1 0-5.024 2.512 2.512 0 0 1 0 5.024z" fill="currentColor"/></svg>