<svg width="24" height="24" viewBox="0 0 24 24" fill="none" xmlns="http://www.w3.org/2000/svg"><path d="M11.5 4c-.668 0-1.317.085-1.938.244-.506.13-.768.574-.852.944-.1.437-.37.831-.782 1.073a1.619 1.619 0 0 1-1.202.18c-.363-.087-.87-.046-1.21.356a8.023 8.023 0 0 0-1.454 2.565c-.195.567.107 1.078.426 1.345.368.308.6.772.6 1.293 0 .52-.232.985-.6 1.293-.32.267-.621.778-.426 1.345.326.95.824 1.817 1.454 2.565.34.402.847.443 1.21.356a1.62 1.62 0 0 1 1.202.18c.412.242.682.636.782 1.073.084.37.346.814.852.944a7.78 7.78 0 0 0 3.876 0c.506-.13.768-.575.852-.944.1-.437.37-.831.782-1.073a1.62 1.62 0 0 1 1.202-.18c.363.087.87.046 1.21-.356a8.022 8.022 0 0 0 1.454-2.565c.195-.567-.107-1.078-.425-1.345A1.68 1.68 0 0 1 17.91 12c0-.52.233-.985.601-1.293.32-.267.621-.778.426-1.345a8.024 8.024 0 0 0-1.454-2.565c-.34-.402-.847-.443-1.21-.356a1.619 1.619 0 0 1-1.202-.18 1.666 1.666 0 0 1-.782-1.073c-.084-.37-.345-.814-.852-.944A7.776 7.776 0 0 0 11.5 4z" stroke="currentColor" stroke-width="1.8"/><circle cx="2.512" cy="2.512" r="2.512" transform="matrix(-1 0 0 1 14.08 9.488)" stroke="currentColor" stroke-width="2"/></svg>