<svg width="24" height="24" viewBox="0 0 24 24" fill="none" xmlns="http://www.w3.org/2000/svg"><path fill-rule="evenodd" clip-rule="evenodd" d="M9.786 5.116a6.877 6.877 0 0 1 3.428 0c.038.01.07.03.106.074a.513.513 0 0 1 .093.198 2.567 2.567 0 0 0 1.204 1.65 2.52 2.52 0 0 0 1.867.278.46.46 0 0 1 .2-.004c.05.012.083.031.112.066l.688-.58-.688.58a7.123 7.123 0 0 1 1.291 2.277.218.218 0 0 1-.007.163.527.527 0 0 1-.145.199l.5.598-.5-.598A2.58 2.58 0 0 0 17.01 12c0 .795.358 1.51.924 1.983.059.05.116.124.145.198.024.062.026.11.007.164a7.122 7.122 0 0 1-1.291 2.277.19.19 0 0 1-.111.066.46.46 0 0 1-.201-.004 2.518 2.518 0 0 0-1.867.279 2.566 2.566 0 0 0-1.205 1.65.513.513 0 0 1-.092.198.19.19 0 0 1-.106.073 6.878 6.878 0 0 1-3.428 0 .19.19 0 0 1-.106-.073.511.511 0 0 1-.092-.199 2.566 2.566 0 0 0-1.205-1.65 2.519 2.519 0 0 0-1.867-.278.46.46 0 0 1-.2.004.189.189 0 0 1-.112-.066 7.123 7.123 0 0 1-1.291-2.277.218.218 0 0 1 .007-.163.526.526 0 0 1 .145-.199A2.58 2.58 0 0 0 5.99 12a2.58 2.58 0 0 0-.924-1.983.527.527 0 0 1-.145-.199.218.218 0 0 1-.007-.163 7.123 7.123 0 0 1 1.291-2.277.189.189 0 0 1 .111-.066.46.46 0 0 1 .201.004c.613.147 1.28.065 1.867-.279a2.566 2.566 0 0 0 1.205-1.65.512.512 0 0 1 .092-.198.19.19 0 0 1 .106-.073zM11.5 3.1c-.744 0-1.469.094-2.162.272-.952.245-1.379 1.059-1.505 1.616a.767.767 0 0 1-.36.496.72.72 0 0 1-.538.081c-.562-.134-1.472-.1-2.106.652A8.923 8.923 0 0 0 3.21 9.07c-.36 1.05.218 1.924.7 2.327a.78.78 0 0 1 .279.603.78.78 0 0 1-.279.603l.57.68-.57-.68c-.482.403-1.06 1.277-.7 2.327a8.923 8.923 0 0 0 1.618 2.853c.634.752 1.545.786 2.107.651a.719.719 0 0 1 .538.081c.186.11.312.289.36.497.126.557.553 1.37 1.505 1.616a8.677 8.677 0 0 0 4.324 0c.952-.245 1.379-1.059 1.506-1.616a.766.766 0 0 1 .36-.497c.17-.1.36-.123.537-.08.562.134 1.473.1 2.107-.652a8.921 8.921 0 0 0 1.617-2.853c.361-1.05-.217-1.924-.699-2.327l-.578.69.578-.69a.78.78 0 0 1-.279-.603.78.78 0 0 1 .28-.603c.481-.403 1.06-1.277.698-2.327a8.922 8.922 0 0 0-1.617-2.853c-.635-.752-1.545-.786-2.107-.652a.72.72 0 0 1-.538-.08.766.766 0 0 1-.36-.497c-.126-.557-.553-1.37-1.505-1.616A8.677 8.677 0 0 0 11.5 3.1zm1.58 8.9a1.512 1.512 0 1 0-3.023 0 1.512 1.512 0 0 0 3.024 0zM11.57 8.488a3.512 3.512 0 1 1 0 7.024 3.512 3.512 0 0 1 0-7.024z" fill="currentColor"/></svg>