<svg width="24" height="24" viewBox="0 0 24 24" fill="none" xmlns="http://www.w3.org/2000/svg"><path d="M12.744 11.814a.552.552 0 0 1-.394-.164.561.561 0 0 1 0-.789l6.102-6.102a.562.562 0 0 1 .789 0 .562.562 0 0 1 0 .789l-6.103 6.102a.552.552 0 0 1-.394.164z" fill="currentColor" stroke="currentColor" stroke-width=".8"/><path d="M19.442 8.688a.562.562 0 0 1-.558-.558V5.116H15.87a.562.562 0 0 1-.558-.558c0-.305.253-.558.558-.558h3.572c.305 0 .558.253.558.558V8.13a.562.562 0 0 1-.558.558zM14.233 20H9.767C5.727 20 4 18.273 4 14.233V9.767C4 5.727 5.727 4 9.767 4h1.489c.305 0 .558.253.558.558a.562.562 0 0 1-.558.558H9.767c-3.43 0-4.65 1.22-4.65 4.651v4.466c0 3.43 1.22 4.65 4.65 4.65h4.466c3.43 0 4.65-1.22 4.65-4.65v-1.489c0-.305.254-.558.559-.558.305 0 .558.253.558.558v1.489C20 18.273 18.273 20 14.233 20z" fill="currentColor" stroke="currentColor" stroke-width=".8"/></svg>