<svg width="24" height="24" viewBox="0 0 24 24" fill="none" xmlns="http://www.w3.org/2000/svg"><path fill="#fff" d="M0 0h24v24H0z"/><path d="M12 3a3.6 3.6 0 0 0-3.6 3.6H4.8a.9.9 0 0 0-.9.9v9.9A3.6 3.6 0 0 0 7.5 21h9a3.6 3.6 0 0 0 3.6-3.6V7.5a.9.9 0 0 0-.9-.9h-3.6A3.6 3.6 0 0 0 12 3zm0 1.8a1.8 1.8 0 0 1 1.8 1.8h-3.6A1.8 1.8 0 0 1 12 4.8zm3.6 6.3c.23 0 .47.077.647.253a.927.927 0 0 1 0 1.294l-3.6 3.6a.927.927 0 0 1-1.294 0l-1.8-1.8a.927.927 0 0 1 0-1.294.927.927 0 0 1 1.294 0L12 14.306l2.953-2.953a.913.913 0 0 1 .647-.253z" fill="currentColor"/></svg>