<svg width="24" height="24" viewBox="0 0 24 24" fill="none" xmlns="http://www.w3.org/2000/svg"><path fill="#fff" d="M0 0h24v24H0z"/><path d="M11.991 2.999a3.6 3.6 0 0 0-3.6 3.6h-3.6a.9.9 0 0 0-.9.9v9.9a3.6 3.6 0 0 0 3.6 3.6h9a3.6 3.6 0 0 0 3.6-3.6v-9.9a.9.9 0 0 0-.9-.9h-3.6a3.6 3.6 0 0 0-3.6-3.6zm0 1.8a1.8 1.8 0 0 1 1.8 1.8h-3.6a1.8 1.8 0 0 1 1.8-1.8zm-6.3 3.6h12.6v9a1.8 1.8 0 0 1-1.8 1.8h-9a1.8 1.8 0 0 1-1.8-1.8v-9zm9.9 2.7c-.23 0-.47.077-.647.253l-2.953 2.953-1.153-1.153a.927.927 0 0 0-1.294 0 .927.927 0 0 0 0 1.294l1.8 1.8a.927.927 0 0 0 1.294 0l3.6-3.6a.927.927 0 0 0 0-1.294.913.913 0 0 0-.647-.253z" fill="currentColor"/></svg>