<svg width="24" height="24" viewBox="0 0 24 24" fill="none" xmlns="http://www.w3.org/2000/svg"><path d="M12.014 2.999a9 9 0 1 0 0 18 9 9 0 0 0 0-18zm0 1.8a7.2 7.2 0 1 1 0 14.4 7.2 7.2 0 0 1 0-14.4zm-2.7 4.5a.9.9 0 0 0-.9.9v.9a.9.9 0 0 0 1.8 0v-.9a.9.9 0 0 0-.9-.9zm5.4 0a.9.9 0 0 0-.9.9v.9a.9.9 0 0 0 1.8 0v-.9a.9.9 0 0 0-.9-.9zm-5.232 4.36a.911.911 0 0 0-.646.252.891.891 0 0 0 0 1.266 4.487 4.487 0 0 0 3.178 1.322c1.204 0 2.34-.49 3.178-1.322a.891.891 0 0 0 0-1.265.891.891 0 0 0-1.266 0 2.71 2.71 0 0 1-1.912.787 2.696 2.696 0 0 1-1.913-.787.848.848 0 0 0-.619-.253z" fill="currentColor"/></svg>