<svg width="24" height="24" viewBox="0 0 24 24" fill="none" xmlns="http://www.w3.org/2000/svg"><path fill="#fff" d="M0 0h24v24H0z"/><path d="M12 21a9 9 0 0 1-9-9 9 9 0 0 1 9-9 9 9 0 0 1 9 9 9 9 0 0 1-9 9zm-2.7-6.3a.9.9 0 0 0 .9-.9v-.9a.9.9 0 0 0-1.8 0v.9a.9.9 0 0 0 .9.9zm5.4 0a.9.9 0 0 0 .9-.9v-.9a.9.9 0 0 0-1.8 0v.9a.9.9 0 0 0 .9.9zm-5.23-4.36c.229 0 .442-.077.617-.252A2.696 2.696 0 0 1 12 9.3c.724 0 1.41.287 1.912.787a.891.891 0 0 0 1.266 0 .89.89 0 0 0 0-1.265A4.512 4.512 0 0 0 12 7.5c-1.208 0-2.34.485-3.178 1.322a.89.89 0 0 0 0 1.266.911.911 0 0 0 .647.252z" fill="currentColor"/></svg>