<svg width="24" height="24" viewBox="0 0 24 24" fill="none" xmlns="http://www.w3.org/2000/svg"><path fill="#fff" d="M0 0h24v24H0z"/><path d="M12.014 20.999a9 9 0 1 1 0-18 9 9 0 0 1 9 9 9 9 0 0 1-9 9zm0-1.8a7.2 7.2 0 1 0 0-14.4 7.2 7.2 0 0 0 0 14.4zm-2.7-4.5a.9.9 0 0 1-.9-.9v-.9a.9.9 0 0 1 1.8 0v.9a.9.9 0 0 1-.9.9zm5.4 0a.9.9 0 0 1-.9-.9v-.9a.9.9 0 0 1 1.8 0v.9a.9.9 0 0 1-.9.9zm-5.232-4.36a.911.911 0 0 1-.646-.253.891.891 0 0 1 0-1.265A4.488 4.488 0 0 1 12.014 7.5c1.204 0 2.34.49 3.178 1.322a.89.89 0 0 1 0 1.265.891.891 0 0 1-1.266 0 2.71 2.71 0 0 0-1.912-.787c-.727 0-1.409.284-1.913.787a.848.848 0 0 1-.619.253z" fill="currentColor"/></svg>