<svg width="24" height="24" viewBox="0 0 24 24" fill="none" xmlns="http://www.w3.org/2000/svg"><path fill="#fff" d="M0 0h24v24H0z"/><path d="M12.014 2.999a9 9 0 1 0 0 18 9 9 0 0 0 0-18zm-2.7 6.3a.9.9 0 0 1 .9.9v.9a.9.9 0 0 1-1.8 0v-.9a.9.9 0 0 1 .9-.9zm5.4 0a.9.9 0 0 1 .9.9v.9a.9.9 0 0 1-1.8 0v-.9a.9.9 0 0 1 .9-.9zm-5.232 4.36c.23 0 .443.077.62.252a2.696 2.696 0 0 0 1.912.788 2.71 2.71 0 0 0 1.912-.787.891.891 0 0 1 1.266 0 .891.891 0 0 1 0 1.265 4.512 4.512 0 0 1-3.178 1.322 4.487 4.487 0 0 1-3.178-1.322.891.891 0 0 1 0-1.265.911.911 0 0 1 .646-.253z" fill="currentColor"/></svg>