<svg width="24" height="24" viewBox="0 0 24 24" fill="none" xmlns="http://www.w3.org/2000/svg"><path fill="#fff" d="M0 0h24v24H0z"/><path d="M10.838 4.577c.366-1.126 1.959-1.126 2.324 0l1.033 3.18c.164.503.633.844 1.163.844H18.7c1.184 0 1.676 1.515.718 2.21l-2.704 1.965a1.222 1.222 0 0 0-.444 1.367l1.033 3.179c.366 1.126-.923 2.062-1.88 1.366l-2.705-1.964a1.222 1.222 0 0 0-1.436 0l-2.704 1.964c-.958.696-2.247-.24-1.881-1.366l1.033-3.18a1.222 1.222 0 0 0-.444-1.366l-2.704-1.964C3.624 10.116 4.116 8.6 5.3 8.6h3.342c.53 0 1-.341 1.163-.845l1.033-3.179z" fill="currentColor" stroke="currentColor" stroke-width="1.8"/></svg>