<svg width="24" height="24" viewBox="0 0 24 24" fill="none" xmlns="http://www.w3.org/2000/svg"><circle cx="12" cy="12" r="9" fill="#2B9BFF" stroke="#000" stroke-width="1.5"/><path fill-rule="evenodd" clip-rule="evenodd" d="M12.317 15.142l1.711.9a.691.691 0 0 0 1.002-.735l-.317-1.89a.74.74 0 0 1 .19-.62l1.382-1.345a.697.697 0 0 0-.38-1.191l-1.902-.267a.726.726 0 0 1-.532-.38l-.85-1.724a.69.69 0 0 0-1.242 0l-.862 1.724a.704.704 0 0 1-.52.38l-1.902.28a.686.686 0 0 0-.38 1.179l1.369 1.343a.71.71 0 0 1 .203.622l-.33 1.889c-.089.57.507 1.001 1.014.735l1.7-.9a.725.725 0 0 1 .646 0z" fill="#fff" stroke="#000" stroke-width="1.5"/></svg>