<svg width="24" height="24" viewBox="0 0 24 24" fill="none" xmlns="http://www.w3.org/2000/svg"><path d="M5.06 9.66A2.922 2.922 0 0 1 7.984 6.74h8.034A2.922 2.922 0 0 1 18.94 9.66V16.6a3.652 3.652 0 0 1-3.652 3.652H8.713A3.652 3.652 0 0 1 5.061 16.6V9.66z" stroke="#333" stroke-width="1.643"/><rect x="11.304" y="13.13" width="1.461" height="5.113" rx=".73" fill="#0681FF"/><path fill-rule="evenodd" clip-rule="evenodd" d="M13.757 15.347a.822.822 0 0 0 0-1.162l-1.163-1.162a.822.822 0 0 0-1.162 0l-.007.008a.255.255 0 0 0-.007.007L10.256 14.2a.822.822 0 1 0 1.162 1.162l.595-.596.581.581c.321.321.842.321 1.163 0z" fill="#0681FF"/><path d="M4 7.477A3.477 3.477 0 0 1 7.477 4h9.035a3.488 3.488 0 0 1 .97 6.838l-.415.12a4.062 4.062 0 0 1-2.38-.037l-.643-.208a6.271 6.271 0 0 0-3.75-.033l-.884.268a4.193 4.193 0 0 1-2.356.023l-.521-.147A3.477 3.477 0 0 1 4 7.477z" fill="#fff" stroke="#333" stroke-width="1.643"/></svg>