<svg width="24" height="24" viewBox="0 0 24 24" fill="none" xmlns="http://www.w3.org/2000/svg"><path fill="#fff" d="M0 0h24v24H0z"/><path d="M8.398 3.014c2.438 0 3.948.645 4.472 2.447.118.406.17.858.197 1.35.028.523.005 1.049-.046 1.588l3.477.015a2.7 2.7 0 0 1 2.7 2.7c0 .659-.288 1.295-.725 1.78.462.485.725 1.098.725 1.82 0 .736-.38 1.452-.918 1.956 0 .22.018.604.018.744 0 1.655-.837 2.716-2.306 3.206-.973.325-1.861.394-3.994.394-4.097 0-7.2-3.103-7.2-7.2 0-2.046.365-3.205 1.434-5.344.956-1.91 1.266-2.851 1.266-4.556a.9.9 0 0 1 .9-.9zm.868 1.837C9.14 6.288 8.73 7.529 7.864 9.258c-.956 1.911-1.266 2.852-1.266 4.556 0 3.103 2.297 5.4 5.4 5.4 3.555 0 4.5-.315 4.5-1.8h-.9a.9.9 0 0 1 0-1.8h.9c.41 0 .9-.486.9-.9a.9.9 0 0 0-.9-.9h-.9a.9.9 0 0 1 0-1.8h.9c.418 0 .9-.476.9-.9a.9.9 0 0 0-.9-.9h-4.5c-.041 0-.406-.003-.703-.365-.297-.364-.173-.684-.169-.704.02-.099.053-.279.085-.534a9.668 9.668 0 0 0 .056-1.687 4.395 4.395 0 0 0-.14-.957c-.19-.653-.744-1.056-1.86-1.116z" fill="currentColor"/></svg>