<svg width="24" height="24" viewBox="0 0 24 24" fill="none" xmlns="http://www.w3.org/2000/svg"><path fill="#fff" d="M0 0h24v24H0z"/><path d="M8.57 3.018c2.358.135 3.14 1.907 3.425 2.71.428 1.208-.005 3.595-.005 3.595l5.062.002c.9 0 2.128.81 2.145 1.987.013.943-.439 1.545-.876 2.028.75.668.876 1.364.876 2.088 0 .735-.396 1.493-.932 1.997.027 1.634-.812 2.707-2.28 3.197-.972.324-1.86.394-3.99.394-4.094 0-7.135-3.053-7.195-7.2-.027-1.89.487-3.589 1.51-5.464 1.382-2.534 1.193-3.828 1.2-4.45.006-.462.44-.92 1.06-.884z" fill="currentColor"/></svg>