<svg width="24" height="24" viewBox="0 0 24 24" fill="none" xmlns="http://www.w3.org/2000/svg"><path fill-rule="evenodd" clip-rule="evenodd" d="M10.039 5.678c.103-.444.516-.778 1.023-.778h1.798a1.1 1.1 0 0 1 1.058.796 67.778 67.778 0 0 0-3.88-.018zm-1.849.073c.025-.139.053-.278.08-.41C8.545 4 9.742 3.1 11.062 3.1h1.798a2.9 2.9 0 0 1 2.844 2.331l.07.35c1.21.07 2.489.176 3.825.324a.9.9 0 1 1-.198 1.79 72.688 72.688 0 0 0-.487-.053c.011.074.015.15.01.23l-.725 10.142A3 3 0 0 1 15.207 21H8.793a3 3 0 0 1-2.992-2.786L5.077 8.07a1.003 1.003 0 0 1 .011-.242c-.165.02-.32.042-.46.062a.9.9 0 1 1-.255-1.782 45.112 45.112 0 0 1 3.817-.358zM9 11.63a.63.63 0 0 1 .63-.63h4.74a.63.63 0 0 1 0 1.26H9.63a.63.63 0 0 1-.63-.63zM10.63 15a.63.63 0 0 0 0 1.26h2.74a.63.63 0 0 0 0-1.26h-2.74z" fill="currentColor"/></svg>