<svg width="24" height="24" viewBox="0 0 24 24" fill="none" xmlns="http://www.w3.org/2000/svg"><path fill="#fff" d="M0 0h24v24H0z"/><path d="M19.386 7.676h-.065c-4.341-.435-8.674-.6-12.966-.165l-1.674.165a.62.62 0 0 1-.132-1.231l1.674-.165c4.366-.443 8.79-.27 13.22.165a.616.616 0 0 1 .55.673.608.608 0 0 1-.607.558z" fill="currentColor" stroke="currentColor" stroke-width=".615"/><path d="M9.128 6.846c-.033 0-.065 0-.106-.008a.618.618 0 0 1-.501-.706l.18-1.075c.132-.788.312-1.88 2.224-1.88h2.15c1.92 0 2.101 1.133 2.224 1.888l.181 1.067a.61.61 0 0 1-.5.706.61.61 0 0 1-.706-.5l-.18-1.068c-.116-.714-.14-.853-1.01-.853h-2.15c-.87 0-.887.115-1.01.845L9.736 6.33a.616.616 0 0 1-.608.517zM14.635 20.822H9.366c-2.864 0-2.979-1.584-3.069-2.864l-.533-8.264a.621.621 0 0 1 .574-.656.622.622 0 0 1 .657.574l.533 8.264c.09 1.247.123 1.715 1.838 1.715h5.269c1.723 0 1.756-.468 1.838-1.715l.534-8.264a.627.627 0 0 1 .656-.574.616.616 0 0 1 .574.656l-.533 8.264c-.09 1.28-.205 2.864-3.07 2.864z" fill="currentColor" stroke="currentColor" stroke-width=".615"/><rect x="9" y="11" width="6" height="2" rx="1" fill="currentColor"/><rect x="10" y="15" width="4" height="2" rx="1" fill="currentColor"/></svg>