<svg width="24" height="24" viewBox="0 0 24 24" fill="none" xmlns="http://www.w3.org/2000/svg"><path d="M19.387 7.675h-.066c-4.341-.435-8.674-.599-12.966-.164l-1.674.164a.62.62 0 0 1-.132-1.23l1.675-.165c4.365-.443 8.788-.27 13.22.164a.616.616 0 0 1 .55.673.608.608 0 0 1-.607.558z" fill="currentColor" stroke="currentColor" stroke-width=".615"/><path d="M9.129 6.846c-.033 0-.066 0-.107-.008a.618.618 0 0 1-.5-.706l.18-1.075c.131-.788.312-1.879 2.224-1.879h2.15c1.92 0 2.1 1.132 2.224 1.887l.18 1.067a.61.61 0 0 1-.5.706.61.61 0 0 1-.706-.5l-.18-1.067c-.115-.714-.14-.854-1.01-.854h-2.15c-.87 0-.886.115-1.01.845L9.737 6.33a.616.616 0 0 1-.607.517zM14.635 20.822H9.367c-2.864 0-2.98-1.584-3.07-2.864l-.533-8.264a.621.621 0 0 1 .574-.656.622.622 0 0 1 .657.574l.533 8.264c.09 1.247.123 1.715 1.839 1.715h5.268c1.723 0 1.756-.468 1.838-1.715l.534-8.264a.627.627 0 0 1 .656-.574c.337.024.6.311.575.656l-.534 8.264c-.09 1.28-.205 2.864-3.069 2.864z" fill="currentColor" stroke="currentColor" stroke-width=".615"/><path d="M13.363 16.308H10.63a.62.62 0 0 1-.615-.615.62.62 0 0 1 .615-.616h2.733a.62.62 0 0 1 .616.616.62.62 0 0 1-.616.615zM14.052 13.026H9.95a.62.62 0 0 1-.615-.616.62.62 0 0 1 .615-.615h4.103a.62.62 0 0 1 .616.615.62.62 0 0 1-.616.616z" fill="currentColor" stroke="currentColor" stroke-width=".615"/></svg>