<svg width="48" height="48" viewBox="0 0 48 48" fill="none" xmlns="http://www.w3.org/2000/svg"><circle cx="24" cy="24" r="16.15" fill="url(#paint0_linear_29_657)" stroke="url(#paint1_linear_29_657)" stroke-width="1.7"/><path d="M30.319 24a6.263 6.263 0 1 1-3.915-5.808c1.002.405 4.698.328 4.698.328s-1.204 3.043-.98 3.914c.128.5.197 1.025.197 1.566z" fill="#FFFCE2" filter="url(#filter0_d_29_657)"/><path fill-rule="evenodd" clip-rule="evenodd" d="M24 9.684a1.79 1.79 0 0 0-1.79 1.79v1.789a1.79 1.79 0 0 0 3.58 0v-1.79A1.79 1.79 0 0 0 24 9.685zm0 23.263a1.79 1.79 0 0 0-1.79 1.79v1.789a1.79 1.79 0 0 0 3.579 0v-1.79a1.79 1.79 0 0 0-1.79-1.789zM38.316 24a1.79 1.79 0 0 0-1.79-1.79h-1.79a1.79 1.79 0 0 0 0 3.58h1.79a1.79 1.79 0 0 0 1.79-1.79zm-23.264 0a1.79 1.79 0 0 0-1.79-1.79h-1.789a1.79 1.79 0 1 0 0 3.579h1.79a1.79 1.79 0 0 0 1.79-1.79z" fill="#FF9E45"/><defs><filter id="filter0_d_29_657" x="14.661" y="17.737" width="19.572" height="18.79" filterUnits="userSpaceOnUse" color-interpolation-filters="sRGB"><feFlood flood-opacity="0" result="BackgroundImageFix"/><feColorMatrix in="SourceAlpha" values="0 0 0 0 0 0 0 0 0 0 0 0 0 0 0 0 0 0 127 0" result="hardAlpha"/><feOffset dy="3.132"/><feGaussianBlur stdDeviation="1.566"/><feComposite in2="hardAlpha" operator="out"/><feColorMatrix values="0 0 0 0 0.970833 0 0 0 0 0.303385 0 0 0 0 0.0930382 0 0 0 1 0"/><feBlend in2="BackgroundImageFix" result="effect1_dropShadow_29_657"/><feBlend in="SourceGraphic" in2="effect1_dropShadow_29_657" result="shape"/></filter><linearGradient id="paint0_linear_29_657" x1="12.5" y1="11.407" x2="40.709" y2="15.213" gradientUnits="userSpaceOnUse"><stop stop-color="#FF981E"/><stop offset="1" stop-color="#FF5027"/></linearGradient><linearGradient id="paint1_linear_29_657" x1="7" y1="41" x2="41" y2="41" gradientUnits="userSpaceOnUse"><stop stop-color="#FEC999"/><stop offset=".518" stop-color="#FFAB5F"/><stop offset="1" stop-color="#FEC999"/></linearGradient></defs></svg>