<svg width="24" height="24" viewBox="0 0 24 24" fill="none" xmlns="http://www.w3.org/2000/svg"><path fill="#fff" d="M0 0h24v24H0z"/><path d="M15.954 20.5H8.046C4.56 20.5 3.5 19.44 3.5 15.954v-1.582c0-3.487 1.06-4.546 4.547-4.546h7.906c3.488 0 4.547 1.06 4.547 4.546v1.582c0 3.487-1.06 4.546-4.546 4.546zm-7.907-9.488c-2.831 0-3.361.537-3.361 3.36v1.582c0 2.822.53 3.36 3.36 3.36h7.908c2.83 0 3.36-.538 3.36-3.36v-1.582c0-2.823-.53-3.36-3.36-3.36H8.046z" fill="currentColor" stroke="currentColor" stroke-width=".5"/><path d="M7.256 11.012a.597.597 0 0 1-.593-.593V8.837C6.663 6.544 7.216 3.5 12 3.5c3.542 0 5.337 1.526 5.337 4.547a.597.597 0 0 1-.593.593.597.597 0 0 1-.593-.593c0-1.566-.474-3.361-4.15-3.361-3.448 0-4.152 1.66-4.152 4.151v1.582a.597.597 0 0 1-.593.593zM12 17.733a2.575 2.575 0 0 1-2.57-2.57 2.575 2.575 0 0 1 2.57-2.57 2.575 2.575 0 0 1 2.57 2.57 2.575 2.575 0 0 1-2.57 2.57zm0-3.954a1.39 1.39 0 0 0-1.384 1.384c0 .759.625 1.384 1.384 1.384a1.39 1.39 0 0 0 1.384-1.384A1.39 1.39 0 0 0 12 13.779z" fill="currentColor" stroke="currentColor" stroke-width=".5"/></svg>