<svg width="24" height="24" viewBox="0 0 24 24" fill="none" xmlns="http://www.w3.org/2000/svg"><path d="M14.863 21.001H9.137c-4.312 0-6.156-1.844-6.156-6.156v-.114c0-3.899 1.537-5.778 4.98-6.103a.678.678 0 0 1 .72.597.66.66 0 0 1-.598.72C5.326 10.2 4.298 11.5 4.298 14.74v.114c0 3.574 1.265 4.839 4.84 4.839h5.725c3.574 0 4.838-1.265 4.838-4.839v-.114c0-3.258-1.045-4.558-3.855-4.795a.658.658 0 0 1 .114-1.308c3.495.298 5.058 2.186 5.058 6.112v.114c0 4.294-1.844 6.138-6.155 6.138z" fill="currentColor" stroke="currentColor" stroke-width=".5"/><path d="M12 15.293a.663.663 0 0 1-.659-.659V4.641c0-.36.299-.658.659-.658.36 0 .659.298.659.658v9.994c0 .36-.299.658-.66.658z" fill="currentColor" stroke="currentColor" stroke-width=".5"/><path d="M14.942 7.258a.652.652 0 0 1-.466-.193L12 4.588 9.523 7.065a.663.663 0 0 1-.93 0 .663.663 0 0 1 0-.931l2.941-2.942a.663.663 0 0 1 .931 0l2.942 2.942a.663.663 0 0 1 0 .93.637.637 0 0 1-.465.194z" fill="currentColor" stroke="currentColor" stroke-width=".5"/></svg>