<svg width="24" height="24" viewBox="0 0 24 24" fill="none" xmlns="http://www.w3.org/2000/svg"><path d="M9.488 3h5.024C19.058 3 21 4.942 21 9.488v5.024C21 19.058 19.058 21 14.512 21H9.488C4.942 21 3 19.058 3 14.512V9.488C3 4.942 4.942 3 9.488 3zm5.024 16.744c3.86 0 5.232-1.373 5.232-5.232V9.488c0-3.86-1.373-5.232-5.232-5.232H9.488c-3.86 0-5.232 1.373-5.232 5.232v5.024c0 3.86 1.373 5.232 5.232 5.232h5.024z" fill="currentColor" stroke="currentColor" stroke-width=".5"/><path d="M12 9.27a.62.62 0 0 1 .444.185l2.511 2.512a.632.632 0 0 1 0 .887.632.632 0 0 1-.887 0L12 10.786l-2.068 2.068a.632.632 0 0 1-.887 0 .632.632 0 0 1 0-.887l2.511-2.512A.62.62 0 0 1 12 9.271z" fill="currentColor" stroke="currentColor" stroke-width=".5"/><path d="M12 9.27c.343 0 .628.285.628.629v6.697a.632.632 0 0 1-.628.628.632.632 0 0 1-.628-.628V9.9c0-.352.285-.628.628-.628zM12 6.784c1.767 0 3.541.285 5.224.846a.63.63 0 0 1 .394.795.62.62 0 0 1-.796.394 15.349 15.349 0 0 0-9.653 0 .63.63 0 0 1-.795-.394.63.63 0 0 1 .393-.795A16.422 16.422 0 0 1 12 6.784z" fill="currentColor" stroke="currentColor" stroke-width=".5"/></svg>