<svg width="24" height="24" viewBox="0 0 24 24" fill="none" xmlns="http://www.w3.org/2000/svg"><path fill-rule="evenodd" clip-rule="evenodd" d="M3.75 12a7.25 7.25 0 1 1 14.5 0 7.25 7.25 0 0 1-14.5 0zm6.75-8.736a8.75 8.75 0 1 0 7.872 4.02L19.55 6.4a1.75 1.75 0 0 0-1.05-3.15h-8v.014zm5.4 1.486c.571.386 1.093.838 1.557 1.345L18.65 5.2a.25.25 0 0 0-.15-.45h-2.6zm-7.65 5.375C8.25 11.161 7.746 12 7.125 12S6 11.16 6 10.125c0-1.036.504-1.875 1.125-1.875s1.125.84 1.125 1.875zM12.375 12c.621 0 1.125-.84 1.125-1.875 0-1.036-.504-1.875-1.125-1.875s-1.125.84-1.125 1.875c0 1.036.504 1.875 1.125 1.875z" fill="currentColor"/></svg>