<svg width="24" height="24" viewBox="0 0 24 24" fill="none" xmlns="http://www.w3.org/2000/svg"><path fill-rule="evenodd" clip-rule="evenodd" d="M7.851 9.91a3.989 3.989 0 0 0 1.476 3.092c-2.497.955-4.322 3.224-4.588 5.939a.702.702 0 0 0 .21.745.738.738 0 0 0 .779.118.71.71 0 0 0 .429-.648h.02c.246-2.921 2.744-5.216 5.789-5.216 2.272 0 4.114-1.804 4.114-4.03s-1.842-4.03-4.114-4.03c-2.273 0-4.115 1.804-4.115 4.03zm6.777 0c0 1.44-1.192 2.608-2.662 2.608S9.303 11.35 9.303 9.91c0-1.44 1.192-2.608 2.663-2.608 1.47 0 2.662 1.168 2.662 2.608z" fill="#333"/><path d="M9.327 13.002l.015.041.071-.027-.059-.048-.027.034zM7.85 9.91h.044-.044zM4.74 18.94l.042.014.001-.01-.043-.004zm.21.745l-.03.033.03-.033zm.779.118l.018.04-.018-.04zm.429-.648v-.044h-.044v.044h.044zm.02 0v.044h.04l.004-.04-.044-.004zm3.177-6.188A3.945 3.945 0 0 1 7.895 9.91h-.088A4.033 4.033 0 0 0 9.3 13.036l.055-.068zm-4.572 5.977c.265-2.698 2.078-4.953 4.56-5.902l-.031-.082c-2.512.96-4.348 3.243-4.616 5.976l.087.008zm.195.708a.658.658 0 0 1-.197-.698l-.083-.027a.746.746 0 0 0 .222.791l.058-.066zm.733.11a.694.694 0 0 1-.733-.11l-.058.066c.227.198.55.247.827.125l-.036-.08zm.403-.608c0 .263-.158.501-.403.609l.036.08a.755.755 0 0 0 .455-.688h-.088zm.064-.044h-.02v.089h.02v-.088zm5.789-5.215c-3.068 0-5.585 2.312-5.833 5.256l.088.007c.244-2.897 2.722-5.175 5.745-5.175v-.088zm4.07-3.986c0 2.2-1.822 3.986-4.07 3.986v.088c2.295 0 4.158-1.823 4.158-4.074h-.088zm-4.07-3.986c2.248 0 4.07 1.785 4.07 3.986h.088c0-2.251-1.862-4.074-4.158-4.074v.088zM7.896 9.91c0-2.2 1.82-3.986 4.07-3.986v-.088c-2.296 0-4.159 1.823-4.159 4.074h.088zm4.07 2.652c1.493 0 2.706-1.187 2.706-2.652h-.088c0 1.415-1.172 2.563-2.618 2.563v.089zM9.259 9.91c0 1.465 1.213 2.652 2.707 2.652v-.088c-1.447 0-2.619-1.15-2.619-2.564H9.26zm2.707-2.652c-1.494 0-2.707 1.186-2.707 2.652h.088c0-1.415 1.172-2.564 2.619-2.564v-.088zm2.706 2.652c0-1.466-1.213-2.652-2.706-2.652v.088c1.447 0 2.618 1.149 2.618 2.564h.088z" fill="#333"/><path d="M18.344 10.344C18.344 6.84 15.472 4 11.93 4c-3.543 0-6.415 2.84-6.415 6.344" stroke="#0681FF" stroke-width="1.586" stroke-linecap="round" stroke-linejoin="round"/><path fill-rule="evenodd" clip-rule="evenodd" d="M17.533 8.845h1.41c.584 0 1.057.473 1.057 1.057v.613c0 .584-.473 1.057-1.057 1.057a1.41 1.41 0 0 1-1.41-1.41V8.845zM6.467 8.492h-1.41C4.473 8.492 4 8.966 4 9.55v.612c0 .584.473 1.058 1.057 1.058a1.41 1.41 0 0 0 1.41-1.41V8.492z" fill="#0681FF"/><path d="M18.232 19.714c0-2.354-1.258-4.418-3.146-5.569" stroke="#333" stroke-width="1.586" stroke-linecap="round" stroke-linejoin="round"/></svg>