<svg width="24" height="24" viewBox="0 0 24 24" fill="none" xmlns="http://www.w3.org/2000/svg"><path fill="#fff" d="M0 0h24v24H0z"/><path d="M11.999 15.697A3.699 3.699 0 0 1 8.302 12a3.699 3.699 0 0 1 3.697-3.697A3.699 3.699 0 0 1 15.696 12 3.699 3.699 0 0 1 12 15.697zm0-6.114A2.42 2.42 0 0 0 9.583 12a2.42 2.42 0 0 0 2.416 2.416A2.42 2.42 0 0 0 14.415 12 2.42 2.42 0 0 0 12 9.583z" fill="currentColor" stroke="currentColor" stroke-width=".5"/><path d="M12 19.702c-3.211 0-6.243-1.879-8.326-5.14-.905-1.41-.905-3.706 0-5.124 2.092-3.262 5.123-5.14 8.325-5.14 3.202 0 6.234 1.878 8.317 5.14.905 1.41.905 3.706 0 5.124-2.083 3.261-5.115 5.14-8.317 5.14zM12 5.58c-2.759 0-5.397 1.656-7.242 4.551-.64.999-.64 2.741 0 3.74 1.845 2.895 4.483 4.551 7.241 4.551s5.397-1.656 7.241-4.551c.64-.999.64-2.741 0-3.74-1.844-2.895-4.483-4.551-7.24-4.551z" fill="currentColor" stroke="currentColor" stroke-width=".5"/></svg>