<svg width="24" height="24" viewBox="0 0 24 24" fill="none" xmlns="http://www.w3.org/2000/svg"><g clip-path="url(#clip0_29_572)"><path fill-rule="evenodd" clip-rule="evenodd" d="M5.262 11.737a2.644 2.644 0 0 1 .903-3.622l5.38-3.245a2.644 2.644 0 0 1 3.635.906l1.486 2.483a2.644 2.644 0 0 1-.903 3.623l-5.38 3.245a2.645 2.645 0 0 1-3.635-.906l-1.486-2.484z" fill="url(#paint0_linear_29_572)" filter="url(#filter0_i_29_572)"/><path fill-rule="evenodd" clip-rule="evenodd" d="M3.824 9.571A2.644 2.644 0 0 1 6.47 6.927h11.03a2.644 2.644 0 0 1 2.645 2.644v.034c-.629 0-1.138.514-1.138 1.148 0 .634.51 1.148 1.138 1.148v5.01a2.645 2.645 0 0 1-2.644 2.644H6.469a2.644 2.644 0 0 1-2.645-2.645v-5.009c.63 0 1.139-.514 1.139-1.148 0-.634-.51-1.148-1.139-1.148v-.034z" fill="url(#paint1_linear_29_572)" filter="url(#filter1_i_29_572)"/><path d="M20.824 10.68h-17" stroke="#fff" stroke-width=".756" stroke-linecap="round" stroke-dasharray="0 1.51"/></g><defs><filter id="filter0_i_29_572" x="4.886" y="4.125" width="12.156" height="11.382" filterUnits="userSpaceOnUse" color-interpolation-filters="sRGB"><feFlood flood-opacity="0" result="BackgroundImageFix"/><feBlend in="SourceGraphic" in2="BackgroundImageFix" result="shape"/><feColorMatrix in="SourceAlpha" values="0 0 0 0 0 0 0 0 0 0 0 0 0 0 0 0 0 0 127 0" result="hardAlpha"/><feOffset dy="-.364"/><feGaussianBlur stdDeviation=".546"/><feComposite in2="hardAlpha" operator="arithmetic" k2="-1" k3="1"/><feColorMatrix values="0 0 0 0 1 0 0 0 0 1 0 0 0 0 1 0 0 0 0.5 0"/><feBlend in2="shape" result="effect1_innerShadow_29_572"/></filter><filter id="filter1_i_29_572" x="3.824" y="6.563" width="16.32" height="12.992" filterUnits="userSpaceOnUse" color-interpolation-filters="sRGB"><feFlood flood-opacity="0" result="BackgroundImageFix"/><feBlend in="SourceGraphic" in2="BackgroundImageFix" result="shape"/><feColorMatrix in="SourceAlpha" values="0 0 0 0 0 0 0 0 0 0 0 0 0 0 0 0 0 0 127 0" result="hardAlpha"/><feOffset dy="-.364"/><feGaussianBlur stdDeviation=".728"/><feComposite in2="hardAlpha" operator="arithmetic" k2="-1" k3="1"/><feColorMatrix values="0 0 0 0 1 0 0 0 0 1 0 0 0 0 1 0 0 0 0.5 0"/><feBlend in2="shape" result="effect1_innerShadow_29_572"/></filter><linearGradient id="paint0_linear_29_572" x1="10.595" y1="13.784" x2="14.805" y2="6.145" gradientUnits="userSpaceOnUse"><stop stop-color="#FF549C"/><stop offset="1" stop-color="#FF3838"/></linearGradient><linearGradient id="paint1_linear_29_572" x1="-1.072" y1="11.428" x2="6.984" y2="26.031" gradientUnits="userSpaceOnUse"><stop stop-color="#FF549C"/><stop offset="1" stop-color="#FF3838"/></linearGradient><clipPath id="clip0_29_572"><path fill="#fff" transform="translate(3.824 3.5)" d="M0 0h17v16.056H0z"/></clipPath></defs></svg>