<svg width="24" height="24" viewBox="0 0 24 24" fill="none" xmlns="http://www.w3.org/2000/svg"><path d="M12.014 2.95c-1.495 0-2.62.78-3.516 2.362l-4.472 8.184c-.692 1.207-1.019 2.056-1.012 2.953a3.612 3.612 0 0 0 3.6 3.6h10.8a3.582 3.582 0 0 0 3.6-3.6c.003-.895-.35-1.797-1.04-2.953l-4.417-8.128c-.828-1.583-2.028-2.42-3.543-2.419zm0 1.8c.794 0 1.397.423 1.94 1.462l4.472 8.184c.556.93.79 1.563.788 2.053a1.777 1.777 0 0 1-1.8 1.8h-10.8a1.797 1.797 0 0 1-1.8-1.8c-.004-.5.232-1.112.787-2.08l4.444-8.157c.6-1.059 1.184-1.463 1.969-1.463zm0 3.6a.9.9 0 0 0-.9.9v3.599a.9.9 0 0 0 1.8 0v-3.6a.9.9 0 0 0-.9-.9zm0 6.299a.9.9 0 1 0 0 1.8.9.9 0 0 0 0-1.8z" fill="currentColor"/></svg>