<svg width="24" height="24" viewBox="0 0 24 24" fill="none" xmlns="http://www.w3.org/2000/svg"><path d="M4.092 17.708a.64.64 0 0 1-.628-.763c.174-.884.363-1.91.433-2.386l-.025-.023C2.665 13.415 2 11.948 2 10.406c0-.826.188-1.627.56-2.38.354-.72.86-1.365 1.501-1.917C5.363 4.99 7.088 4.375 8.917 4.375c1.643 0 3.236.51 4.484 1.437 1.258.934 2.092 2.229 2.348 3.647.063.348-5.316 6.843-5.666 6.895a7.992 7.992 0 0 1-3.04-.139c-.418.19-1.623.841-2.637 1.411a.64.64 0 0 1-.314.082z" fill="#fff" stroke="#333" stroke-width="1.701"/><path d="M6.331 8.532c0 .417.423.756.945.756s.945-.339.945-.756-.423-.756-.945-.756-.945.339-.945.756zM10.489 8.532c0 .417.422.756.944.756s.945-.339.945-.756-.423-.756-.945-.756c-.521 0-.944.339-.944.756z" fill="#333"/><path d="M20.101 20.625a.67.67 0 0 1-.32-.08c-.842-.458-1.845-.981-2.224-1.153-.519.12-1.056.18-1.599.18-1.595 0-3.1-.518-4.236-1.46a5.141 5.141 0 0 1-1.315-1.62 4.403 4.403 0 0 1 0-4.036 5.14 5.14 0 0 1 1.315-1.62c1.136-.942 2.64-1.461 4.236-1.461 1.596 0 3.1.519 4.236 1.461a5.141 5.141 0 0 1 1.315 1.62c.326.638.491 1.317.491 2.018 0 1.298-.576 2.532-1.622 3.478.065.41.22 1.223.363 1.922a.613.613 0 0 1-.136.521.662.662 0 0 1-.504.23z" fill="#fff" stroke="#0681FF" stroke-width="1.701"/><path d="M16.535 12.689a.756.756 0 1 0 1.512 0 .756.756 0 0 0-1.512 0zM13.134 12.689a.756.756 0 1 0 1.511 0 .756.756 0 0 0-1.511 0z" fill="#0681FF"/></svg>